<svg viewBox="0 0 100 100" fill="none" xmlns="http://www.w3.org/2000/svg">
  <path d="M80 52C80 70.9279 66.8772 86 51 86C35.1228 86 22 70.9279 22 52C22 33.0721 35.1228 18 51 18C66.8772 18 80 33.0721 80 52Z" fill="#F2C94C" stroke="black" stroke-width="2"/>
  <path d="M77 48C77 66.9279 63.8772 82 48 82C32.1228 82 19 66.9279 19 48C19 29.0721 32.1228 14 48 14C63.8772 14 77 29.0721 77 48Z" fill="#F2C94C" stroke="black" stroke-width="2"/>
  <path d="M67 49C67 62.4746 58.2967 73 48 73C37.7033 73 29 62.4746 29 49C29 35.5254 37.7033 25 48 25C58.2967 25 67 35.5254 67 49Z" fill="#F2C94C" stroke="black" stroke-width="2"/>
  <path d="M54 63.6304C50.6254 65.8071 39.4328 64.4181 38.404 59.2417C36.9945 52.1503 51.2707 60.5021 52.5 61M52.5 61C53.8152 61.5327 59.1102 63.4669 60.5 62C61.8259 60.6005 56.5 54.5 38.4779 46.0478M52.5 61C51.4652 56.995 47.2815 47.4367 45.6 43.7906C44.026 40.3774 42.1216 35.1352 39.2665 33.1402C38.5085 32.6105 37.4795 33.7486 38.3054 33.8078C39.7943 33.9145 41.2152 34.1621 42.692 34.5072C45.9517 35.269 49.9806 35.3975 53.0179 37.2414C54.279 38.007 38.7091 45.916 38.4779 46.0478M38.4779 46.0478C38.2862 46.2704 53.7312 46.0478 54 46.0478" stroke="black" stroke-width="3" stroke-linecap="round" stroke-linejoin="round"/>
</svg>
