<svg viewBox="0 0 100 100" fill="none" xmlns="http://www.w3.org/2000/svg">
  <g class="weapon">
    <path d="M15.5957 29.9326L13.7104 30.6002C10.8237 28.4399 5.96356 22.2046 11.1481 20.3686C16.8039 18.3658 16.8396 25.9559 15.5957 29.9326Z" fill="#548378" stroke="black"/>
    <path d="M13.7104 30.6002L36.0755 93.7572L37.9608 93.0896L15.5957 29.9326L13.7104 30.6002Z" fill="#5A4545" stroke="black"/>
  </g>
  <path class="leg-left" d="M40.2766 78L43.7766 88H46.7766L47.7766 77L53.2766 66L45.2766 64.5L40.2766 78Z" fill="#C98787" stroke="black"/>
  <path class="leg-right" d="M54.7766 66.5L63.2766 65L65.7766 76L62.2766 87H59.2766L57.7766 76L54.7766 66.5Z" fill="#C98787" stroke="black"/>
  <g class="boot-left">
    <path d="M43.2766 89.5L39.7766 80.5L48.7766 82L47.2766 89.5L48.7766 94H40.7766L43.2766 89.5Z" fill="#9C0A0A"/>
    <path d="M40.7766 94L43.2766 89.5L39.7766 80.5L48.7766 82L47.2766 89.5L48.7766 94M40.7766 94H48.7766M40.7766 94L44.7766 91.5L48.7766 94" stroke="black"/>
  </g>
  <g class="boot-right">
    <path d="M58.7766 90L56.2766 82L66.7766 81L62.7766 90L65.2766 94.5H57.2766L58.7766 90Z" fill="#9C0A0A"/>
    <path d="M57.2766 94.5L58.7766 90L56.2766 82L66.7766 81L62.7766 90L65.2766 94.5M57.2766 94.5H65.2766M57.2766 94.5L61.2766 92L65.2766 94.5" stroke="black"/>
  </g>
  <path class="body" d="M45.2766 64.5L47.2766 51L45.2766 44.5L44.2766 35L53.7766 31.5L64.7766 35L65.2766 44.5L60.2766 53.5L63.2766 65.5L53.7766 66.5L45.2766 64.5Z" fill="#B69999" stroke="black"/>
  <g class="hand-right">
    <path d="M67.7766 59.5L75.2766 51L76.2766 48.5L64.7766 34.5L64.2766 45.5L68.7766 50L62.2766 59.5H67.7766Z" fill="#375E4B"/>
    <path d="M67.7766 59.5L75.2766 51L76.2766 48.5L64.7766 34.5L64.2766 45.5L68.7766 50L62.2766 59.5H67.7766Z" stroke="black"/>
    <path d="M62.2766 59.5H67.7766V63C63.7766 65 61.2766 63.5 62.2766 59.5Z" fill="#B69999"/>
    <path d="M62.2766 59.5H67.7766V63C63.7766 65 61.2766 63.5 62.2766 59.5Z" stroke="black"/>
  </g>
  <g class="hand-left">
    <path d="M25.2766 56.5L32.2766 45L44.2766 34.5L45.7766 45.5L37.7766 49.5L29.2766 60L25.2766 56.5Z" fill="#375E4B"/>
    <path d="M25.2766 56.5L32.2766 45L44.2766 34.5L45.7766 45.5L37.7766 49.5L29.2766 60L25.2766 56.5Z" stroke="black"/>
    <path d="M21.2766 58.5L25.2766 56.5L29.2766 60C23.2766 66 21.6099 61.6667 21.2766 58.5Z" fill="#B69999"/>
    <path d="M21.2766 58.5L25.2766 56.5L29.2766 60C23.2766 66 21.6099 61.6667 21.2766 58.5Z" stroke="black"/>
  </g>
  <g class="armor">
    <path d="M59.2766 32.5L54.2766 41.5L49.2766 33L44.7766 32.5L30.7766 42.5L32.2766 44.5L38.7766 48L44.7766 50L38.7766 75.5H54.2766L68.7766 74L66.2766 62L63.7766 51L65.2766 49.5L67.7766 48.5L75.7766 47.5L77.2766 46L66.7766 33.5L59.2766 32.5Z" fill="#9B9292" stroke="black"/>
    <path d="M50.2766 46H58.2766M50.2766 52H58.2766M50.2766 55H58.2766M50.2766 58H58.2766M50.2766 61H58.2766M50.2766 64H58.2766M50.2766 49H58.2766" stroke="black"/>
    <path d="M47.7766 40.5C47.7766 42.2319 46.5877 43.5 45.2766 43.5C43.9654 43.5 42.7766 42.2319 42.7766 40.5C42.7766 38.7681 43.9654 37.5 45.2766 37.5C46.5877 37.5 47.7766 38.7681 47.7766 40.5Z" stroke="black"/>
    <path d="M66.7766 40.5C66.7766 42.2319 65.5877 43.5 64.2766 43.5C62.9654 43.5 61.7766 42.2319 61.7766 40.5C61.7766 38.7681 62.9654 37.5 64.2766 37.5C65.5877 37.5 66.7766 38.7681 66.7766 40.5Z" stroke="black"/>
    <path d="M47.2766 41.5C50.7766 46 60.2766 45.5 61.7766 41.5M47.7766 40C51.2766 44.5 58.7766 44 61.7766 39.5" stroke="black"/>
  </g>
  <g class="head">
    <path class="skull" d="M62.7766 16.8926C56.7766 11.8926 48.7766 14.8926 48.7766 14.8926L46.2766 21.8926L43.2766 27.3926L53.7766 34.3926L64.7766 29.3926L62.7766 22.8926V16.8926Z" fill="#B69999" stroke="black"/>
    <path class="mustache" d="M46.2766 26.0068C47.1099 26.6752 49.2766 27.611 51.2766 26.0068C53.7766 24.0016 55.2766 25.1474 56.7766 26.0068C58.2766 26.8662 58.7766 26.8662 61.2766 26.0068" stroke="black" stroke-width="2"/>
    <path class="beard" d="M52.2766 36.3926L48.7766 29.3926L54.2766 27.8926L59.7766 29.3926L55.2766 36.3926H52.2766Z" fill="black" stroke="black"/>
    <path class="eyebrows" d="M51.2766 18.8926L55.7766 20.3926L59.7766 19.8926" stroke="black" stroke-width="2"/>
    <path class="eye-left" d="M51.7766 22.3926V19.8926L54.7766 20.8926L51.7766 22.3926Z" fill="white" stroke="black"/>
    <path class="eye-right" d="M56.7766 22.8926L58.2766 20.8926L55.2766 20.3926L56.7766 22.8926Z" fill="white" stroke="black"/>
  </g>
</svg>
