<svg viewBox="0 0 100 100" fill="none" xmlns="http://www.w3.org/2000/svg">
  <path class="leg-left" d="M85.3268 69.5714L77.7408 66.4868L63.9311 73.901L56.686 72.1433L68.9856 60.4758L79.4868 59.4047L85.8388 64.1178C86.6486 60.1695 90.9555 55.9391 93.127 54.6418L89.8878 70.4351L85.3268 69.5714Z" fill="#775D2B" stroke="black"/>
  <path class="leg-right" d="M44.8148 90.0588L55.4074 81L45.6296 74.4118L44 67L60.2963 72.7647L66 81.8235L50.5185 90.0588C54.4296 90.7176 61.3827 93.6275 63.5556 95L44.8148 94.1765V90.0588Z" fill="#775D2B" stroke="black"/>
  <g class="weapon">
    <path d="M68.5896 41.6061L83.6573 59.1165L86.1387 57.0862L71.071 39.5757L68.5896 41.6061Z" fill="#614F4F" stroke="black"/>
    <path d="M75.3552 37.1836L64.1891 46.3201C62.1868 43.0104 69.0638 36.8337 72.7526 34.159L75.3552 37.1836Z" fill="#C4C4C4" stroke="black"/>
  </g>
  <g class="hand-left">
    <path class="hand-left-fill" d="M57.657 65.8046C57.0222 65.9305 50.371 55.9683 47.1247 50.9714L47.7294 41.9872C52.6318 43.0393 61.8544 47.1064 59.5259 54.9579L72.6932 50.7339C73.8498 48.3555 72.0337 43.6121 77.75 43.2839L82.2157 48.8447L73.9848 56.9243L57.657 65.8046Z" fill="#C4C4C4"/>
    <path class="hand-left-stroke" d="M73.9848 56.9243L57.657 65.8046C57.0222 65.9305 50.371 55.9683 47.1247 50.9714L47.7294 41.9872C52.6318 43.0393 61.8544 47.1064 59.5259 54.9579L72.6932 50.7339M73.9848 56.9243L72.6932 50.7339M73.9848 56.9243L82.2157 48.8447L77.75 43.2839C72.0337 43.6121 73.8498 48.3555 72.6932 50.7339" stroke="black"/>
  </g>
  <path class="body" d="M66.978 58.5129C60.3935 48.46 57.3818 43.3756 53.8152 41.829C49.6998 40.0445 39 41.0557 39 45.6955C39 67.3478 46.0137 67.0014 52.1628 70.1123C62.8627 75.5254 73.5625 68.5657 66.978 58.5129Z" fill="#C4C4C4" stroke="black"/>
  <g class="hand-right">
    <path class="hand-right-fill" d="M25 51.907C25 51.293 35.9375 47.0465 41.4062 45L50 47.3023C48.0371 51.6512 42.3203 59.4279 35.1562 55.7442L36.7188 68.7907C38.8021 70.3256 43.75 69.5581 42.9688 74.9302L36.7188 78L30.4688 68.7907L25 51.907Z" fill="#C4C4C4"/>
    <path class="hand-right-stroke" d="M30.4688 68.7907L25 51.907C25 51.293 35.9375 47.0465 41.4062 45L50 47.3023C48.0371 51.6512 42.3203 59.4279 35.1562 55.7442L36.7188 68.7907M30.4688 68.7907H36.7188M30.4688 68.7907L36.7188 78L42.9688 74.9302C43.75 69.5581 38.8021 70.3256 36.7188 68.7907" stroke="black"/>
  </g>
  <g class="shield">
    <path class="shield-main" d="M10.4757 78.0445C16.4899 67.9676 35.4162 51.2335 49.1419 54.939C54.4797 56.38 58.941 62.9755 58.0274 69.0783C56.2727 80.799 33.9494 92.7278 19.3612 92.1838C4.77296 91.6397 4.46142 88.1214 10.4757 78.0445Z" fill="#614F4F" stroke="black"/>
    <path class="shield-center" d="M33.0288 71.0506C33.5635 68.8788 36.1592 67.3277 38.2943 67.9041C40.4294 68.4805 41.5327 70.5996 41.2562 72.6172C40.9796 74.6347 38.2178 76.2851 35.9906 75.7637C33.7634 75.2423 32.4941 73.2224 33.0288 71.0506Z" fill="#C4C4C4" stroke="black"/>
  </g>
  <g class="head">
    <path class="head" d="M60.735 36.5198L42.9194 38.8888L37.2508 30.9922V20.7266C46.9684 9.98714 57.4958 10.4609 60.735 15.1989L65.5938 27.0439L62.0509 29.4129C58.9467 28.8864 55.0664 27.8335 52.637 30.9922C55.8762 30.729 59.9812 30.5409 61.6008 31.3305L60.735 36.5198Z" fill="#A68787" stroke="black"/>
    <path class="eye" d="M59.3372 22H48L59.3372 25.1586V22Z" fill="white" stroke="black"/>
    <path class="beard" d="M65.5938 50.7338L61.5448 33.3612H52.637L40.49 31.7818L46.1586 40.4681L65.5938 50.7338Z" fill="black" stroke="black"/>
    <path class="mustache" d="M48 29.3115C48.8333 29.9799 51.5 30.9157 53.5 29.3115C56 27.3063 60 28 60 28" stroke="black" stroke-width="3"/>
  </g>
</svg>
