<svg viewBox="0 0 100 100" fill="none" xmlns="http://www.w3.org/2000/svg">
  <path d="M70 70C67.1119 70.918 59 69.2332 59 68C59 66.7668 59.9905 65.3868 60.5 65.5C61.3086 65.6797 64.2088 66.503 65 66.7668C66.0622 67.1208 69.4078 66.7668 70.5 66.7668C72.1667 66.6778 75 65.5 77.5 65C83.5 63.5752 86.1667 67.7397 87 70C87.5013 71.1975 88 74.5 89 75.5C90.6 76.3 93 74.5 95.5 77.5C97 79 97.0165 79.5 93 82.5L93.9835 80C93.9422 78.8872 93.5 77.5 90 78.5C88.25 79 85.8 75.6866 85 71.5C84 69 82 68.5336 80 68.5C77.3707 68.5 73.6119 69.2588 70 70Z" fill="url(#paint0_linear)" stroke="black" stroke-linecap="round" stroke-linejoin="round"/>
  <path d="M29.5 71C30.0641 70.5648 33 70.6549 33 70C33.5 69 34.2 66.7 33 65.5C31.037 65.5 29.0586 66.5326 27.5 67.5C26.324 68.2299 26.1721 69.2465 25 70C24.3101 70.4435 23.8114 72.0132 23.0704 72.3528C21.5268 73.3425 19.047 73.8713 18 74.012H14.5C12 73.4952 11.5 76.6056 8.5 77C6.61138 77.2483 4 79.3195 3.35741 83.4538C3.35741 84.8769 3.70125 85.7136 4.7038 86.6634C5.27782 87.2072 6.54658 87.2754 6.54658 87.2754C6.54658 87.2754 5.61499 85.5 5.61499 84C5.61499 83.2458 5.90846 82.3892 6.11138 81.6586C6.56753 80.0165 8.06808 80.0038 9.5 79.5C11.5701 78.7716 12.8138 76.819 15 76.4975C15.7951 76.3082 17.5746 76.5861 18.3649 76.4975C19.064 76.4309 20.2608 76.5336 20.9081 76.2459C23.3866 75.1443 24 75.5 25.5 75.5C26.5 75 26.5 73.8795 27.5 73C28.5 72.1205 28.9877 71.3952 29.5 71Z" fill="url(#paint1_linear)" stroke="black" stroke-linecap="round" stroke-linejoin="round"/>

  <path d="M40.0324 70.8863C40.0183 70.1541 39.5705 68.4486 42.5007 66.1165C43.2271 66.1165 45.3325 65.8544 46 66.1165C43.6666 67.1295 42.0198 68.787 41.7457 69.6702C41.001 70.8863 41.001 72.7118 41.7457 74C41.0476 73.1228 40.4032 72.4968 40.0324 70.8863Z" fill="#333333" stroke="black" stroke-linecap="round" stroke-linejoin="round"/>
  <path d="M37.0324 71.1861C37.0183 70.409 36.5705 68.5988 39.5012 66.1236C40.2278 66.1236 42.3336 65.8454 43.0012 66.1236C40.6674 67.1988 39.0202 68.958 38.746 69.8954C38.0012 71.1861 38.0012 73.1236 38.746 74.4908C38.0478 73.5598 37.4033 72.8954 37.0324 71.1861Z" fill="#333333" stroke="black" stroke-linecap="round" stroke-linejoin="round"/>
  <path d="M51.5 68.9703C50.9136 68.2346 50.5 67.8367 51 67C51.2988 66.5 52 67 52.5 67.5C53.1705 68.1705 54 69.4999 53.5 71C53 72.5 52.1664 74.1229 52 73.9903C52.5205 71.35 52.0863 69.7059 51.5 68.9703Z" fill="#333333" stroke="black" stroke-linecap="round" stroke-linejoin="round"/>
  <path d="M49 70C48.4137 69.4483 47.9873 68.6703 47 68.5544C47.8 67.5504 49.1667 68.136 50 68.5544C50.5 69 51.5 69.5 51 71.5C50.7575 72.4701 49.6664 74.0922 49.5 73.9928C50.0205 72.0125 49.5863 70.5517 49 70Z" fill="#333333" stroke="black" stroke-linecap="round" stroke-linejoin="round"/>

  <path d="M38.1397 69.4065C39.4736 68.6655 41.2009 68.7718 42.6594 69.0464H44.9463C46.5786 69.0464 48.4712 69.0111 49.8893 69.9287C52 70.3789 53.9058 69.9287 54.5 69.9287C55.8714 69.9287 56.5899 68.8256 58 68.5692C58 68.5692 59.5862 68.4138 60 68C60.4063 67.5937 61 66.5907 61 66C61 64.7153 56 64.8828 54.0219 64C51.09 63.1177 51.9264 61.5454 52 60C52.0736 58.4546 54.0882 56.7294 55 56C55.6943 55.4445 57.8118 54.5471 58.6227 54.4517C59.2316 54.38 60.2501 53.8495 60.8106 53.5693C62.5506 52.6993 64.0546 51.5917 65.2043 49.9949C66.5717 48.0956 68.6076 46.518 68.6076 43.9265C68.6076 41.727 68.7381 39.4802 68.4816 37.2999C68.3422 36.1149 67.8954 35.1488 67.113 34.2027C66.0182 32.8787 64.4635 32.3023 63.0975 31.3216C62.2381 30.7046 61.1097 30.2448 60.1083 29.917C58.751 29.4728 57.4298 28.9188 56.0027 28.7286C53.0829 28.3393 49.8278 28.6161 46.9541 29.1067C44.2378 29.5705 41.1367 30.3483 38.941 32.1049C38.1257 33.3278 35.0515 35.5 33.926 39.1727C32.8349 41.7399 31.4468 44.7576 32.1433 47.5C32.4685 48.7805 33.151 50.0796 33.5389 51.3724C33.85 52.4096 34.3964 53.6729 35.0515 54.5327L40.2103 61.0032C41.0103 63.0057 39.8769 64.1688 39.2103 64.5C38.1397 66.3723 34.6941 63.338 32.8636 65.0668C31.9248 65.9534 31.6571 67.3448 31.6571 68.5692C31.6571 69.1978 31.9292 69.6641 32.1433 70.2529C32.3263 70.756 33.6965 70.5049 34.0881 70.5049C34.9486 70.5049 35.8475 70.5996 36.6811 70.3789C37.2964 70.216 37.6107 69.7004 38.1397 69.4065Z" fill="url(#paint2_radial)" stroke="black" stroke-linecap="round" stroke-linejoin="round"/>
  <path d="M36.9912 40.3507C41 37.5 44.5 37 49.5 37C55.1 37.4 56.6667 39.5 57 40.5C57.4252 42.9297 55.9655 44.7851 54.2893 45.9647C53.1192 46.7881 47.5 50.5 38.7105 49.4594C33.5 47.5 31.7841 45.0312 36.9912 40.3507Z" fill="url(#paint3_radial)" stroke="black" stroke-linecap="round" stroke-linejoin="round"/>
  <path d="M44 41C42 40.5 40.5 45.6111 44 46C45.9999 46.2222 46.5 41 44 41Z" fill="#333333" stroke="black"/>

  <defs>
    <linearGradient id="paint0_linear" x1="89" y1="76" x2="93.5" y2="77" gradientUnits="userSpaceOnUse">
      <stop stop-color="#A6AEA9"/>
      <stop offset="1" stop-color="#970505"/>
    </linearGradient>
    <linearGradient id="paint1_linear" x1="4.5" y1="81.5" x2="7" y2="78" gradientUnits="userSpaceOnUse">
      <stop stop-color="#970505"/>
      <stop offset="1" stop-color="#A6AEA9"/>
    </linearGradient>
    <radialGradient id="paint2_radial" cx="0" cy="0" r="1" gradientUnits="userSpaceOnUse" gradientTransform="translate(54 31) rotate(102.137) scale(47.5631 41.8594)">
      <stop offset="0.430058" stop-color="#494949"/>
      <stop offset="1" stop-color="#145234"/>
    </radialGradient>
    <radialGradient id="paint3_radial" cx="0" cy="0" r="1" gradientUnits="userSpaceOnUse" gradientTransform="translate(45 43) rotate(127.185) scale(18.2003 33.4503)">
      <stop stop-color="#C00000"/>
      <stop offset="0.9999" stop-color="#1F0000"/>
    </radialGradient>
  </defs>
</svg>
