<svg viewBox="0 0 100 100" fill="none" xmlns="http://www.w3.org/2000/svg">
  <path d="M75.2073 64.0857C74.029 65.9141 74.7602 69.163 77.0335 69.6916L82.2572 69.9464C79.6574 69.9464 76.6356 70.201 74.4429 71.7301C73.2143 72.5869 72.486 73.8949 71.1869 74.6888C68.1982 76.5153 64.7119 77.1615 61.2775 77.5626C53.1955 78.5064 44.9021 78.5037 36.7729 78.327C34.9648 78.2877 33.0289 78.2834 31.2944 77.69C30.6613 77.4734 29.9903 77.1165 29.8221 76.4159C29.5562 75.3081 29.9872 74.2401 30.0911 73.1599C30.2764 71.2325 26.9379 70.2678 25.6601 69.7553C22.1191 68.3352 18.2761 66.931 15.5384 64.1494C14.6448 63.2415 13.9654 62.1987 13.9529 60.8935C13.9422 59.7866 14.1935 58.6917 14.1935 57.5809C14.1935 54.6331 12.9359 51.405 11.4897 48.8677C10.8076 47.6711 9.23639 46.5579 8.94152 45.1941C8.51759 43.2334 9.61875 41.154 9.33082 39.1564C8.9523 36.5305 7.64256 34.1587 7.50465 31.4695C7.41277 29.6779 7.91423 27.604 9.67765 26.7838C11.3062 26.0263 13.2089 25.9178 14.9438 25.5239C17.421 24.9614 19.7486 24.2724 21.8946 22.8766C24.9212 20.9081 27.806 18.8757 31.2236 17.6105C37.9567 15.1179 45.0861 15.1843 52.0759 16.2515C54.1343 16.5657 56.1429 16.9652 58.2339 17.0442C62.4443 17.2033 66.537 17.6129 70.5782 18.8987C73.4142 19.8011 75.6931 20.7654 77.5856 23.0748C78.3556 24.0145 79.436 25.2165 79.7232 26.4228C80.0496 27.7939 78.8509 29.1964 78.1306 30.2238C77.664 30.8893 77.1714 31.4879 76.9273 32.2764C76.7222 32.9392 76.6538 33.6318 76.4743 34.3008C76.299 34.9541 76.8615 35.639 77.1821 36.1553C78.1611 37.7318 79.3156 39.1808 80.4168 40.6711L80.4742 40.7487C82.641 43.6811 85.041 46.9289 85.5697 50.6301C86.0233 53.8049 84.8373 56.0114 82.4058 57.9773C81.0155 59.1014 79.6 60.195 78.2085 61.3182C77.1781 62.1498 75.9382 62.9516 75.2073 64.0857Z" fill="url(#paint0_linear)"/>
  <path d="M75.2073 64.0857C74.029 65.9141 74.7602 69.163 77.0335 69.6916L82.2572 69.9464C79.6574 69.9464 76.6356 70.201 74.4429 71.7301C73.2143 72.5869 72.486 73.8949 71.1869 74.6888C68.1982 76.5153 64.7119 77.1615 61.2775 77.5626C53.1955 78.5064 44.9021 78.5037 36.7729 78.327C34.9648 78.2877 33.0289 78.2834 31.2944 77.69C30.6613 77.4734 29.9903 77.1165 29.8221 76.4159C29.5562 75.3081 29.9872 74.2401 30.0911 73.1599C30.2764 71.2325 26.9379 70.2678 25.6601 69.7553C22.1191 68.3352 18.2761 66.931 15.5384 64.1494C14.6448 63.2415 13.9654 62.1987 13.9529 60.8935C13.9422 59.7866 14.1935 58.6917 14.1935 57.5809C14.1935 54.6331 12.9359 51.405 11.4897 48.8677C10.8076 47.6711 9.23639 46.5579 8.94152 45.1941C8.51759 43.2334 9.61875 41.154 9.33082 39.1564C8.9523 36.5305 7.64256 34.1587 7.50465 31.4695C7.41277 29.6779 7.91423 27.604 9.67765 26.7838C11.3062 26.0263 13.2089 25.9178 14.9438 25.5239C17.421 24.9614 19.7486 24.2724 21.8946 22.8766C24.9212 20.9081 27.806 18.8757 31.2236 17.6105C37.9567 15.1179 45.0861 15.1843 52.0759 16.2515C54.1343 16.5657 56.1429 16.9652 58.2339 17.0442C62.4443 17.2033 66.537 17.6129 70.5782 18.8987C73.4142 19.8011 75.6931 20.7654 77.5856 23.0748C78.3556 24.0145 79.436 25.2165 79.7232 26.4228C80.0496 27.7939 78.8509 29.1964 78.1306 30.2238C77.664 30.8893 77.1714 31.4879 76.9273 32.2764C76.7222 32.9392 76.6538 33.6318 76.4743 34.3008C76.299 34.9541 76.8615 35.639 77.1821 36.1553C78.1611 37.7318 79.3156 39.1808 80.4168 40.6711L80.4742 40.7487C82.641 43.6811 85.041 46.9289 85.5697 50.6301C86.0233 53.8049 84.8373 56.0114 82.4058 57.9773C81.0155 59.1014 79.6 60.195 78.2085 61.3182C77.1781 62.1498 75.9382 62.9516 75.2073 64.0857Z" fill="url(#paint1_linear)"/>
  <path d="M75.2073 64.0857C74.029 65.9141 74.7602 69.163 77.0335 69.6916L82.2572 69.9464C79.6574 69.9464 76.6356 70.201 74.4429 71.7301C73.2143 72.5869 72.486 73.8949 71.1869 74.6888C68.1982 76.5153 64.7119 77.1615 61.2775 77.5626C53.1955 78.5064 44.9021 78.5037 36.7729 78.327C34.9648 78.2877 33.0289 78.2834 31.2944 77.69C30.6613 77.4734 29.9903 77.1165 29.8221 76.4159C29.5562 75.3081 29.9872 74.2401 30.0911 73.1599C30.2764 71.2325 26.9379 70.2678 25.6601 69.7553C22.1191 68.3352 18.2761 66.931 15.5384 64.1494C14.6448 63.2415 13.9654 62.1987 13.9529 60.8935C13.9422 59.7866 14.1935 58.6917 14.1935 57.5809C14.1935 54.6331 12.9359 51.405 11.4897 48.8677C10.8076 47.6711 9.23639 46.5579 8.94152 45.1941C8.51759 43.2334 9.61875 41.154 9.33082 39.1564C8.9523 36.5305 7.64256 34.1587 7.50465 31.4695C7.41277 29.6779 7.91423 27.604 9.67765 26.7838C11.3062 26.0263 13.2089 25.9178 14.9438 25.5239C17.421 24.9614 19.7486 24.2724 21.8946 22.8766C24.9212 20.9081 27.806 18.8757 31.2236 17.6105C37.9567 15.1179 45.0861 15.1843 52.0759 16.2515C54.1343 16.5657 56.1429 16.9652 58.2339 17.0442C62.4443 17.2033 66.537 17.6129 70.5782 18.8987C73.4142 19.8011 75.6931 20.7654 77.5856 23.0748C78.3556 24.0145 79.436 25.2165 79.7232 26.4228C80.0496 27.7939 78.8509 29.1964 78.1306 30.2238C77.664 30.8893 77.1714 31.4879 76.9273 32.2764C76.7222 32.9392 76.6538 33.6318 76.4743 34.3008C76.299 34.9541 76.8615 35.639 77.1821 36.1553C78.1611 37.7318 79.3156 39.1808 80.4168 40.6711L80.4742 40.7487C82.641 43.6811 85.041 46.9289 85.5697 50.6301C86.0233 53.8049 84.8373 56.0114 82.4058 57.9773C81.0155 59.1014 79.6 60.195 78.2085 61.3182C77.1781 62.1498 75.9382 62.9516 75.2073 64.0857Z" stroke="black" stroke-linecap="round" stroke-linejoin="round"/>
  <path d="M36.7814 58.4973C35.2617 57.1405 17.0907 51.6286 23.2814 50.3782C29.472 49.1278 48.4335 51.3782 48.4335 51.3782C51.6197 50.8981 54.7923 48.9946 57.2814 52.4973C59.7704 56 72.7814 55.3446 57.2814 58.4973C41.7814 61.6501 36.7814 58.4973 36.7814 58.4973Z" fill="#BDBDBD" stroke="black" stroke-width="2" stroke-linecap="round" stroke-linejoin="round"/>
  <path d="M32.7066 44.7147C34.8709 45.4997 37.3309 45.7098 39.6117 45.7098L38.6978 44.0648C39.0466 43.0184 41.475 42.3972 42.3737 42.0643C43.4831 41.6535 46.7858 40.5919 45.6028 40.5919C44.5062 40.5919 43.4093 40.5828 42.3128 40.5919C39.5538 40.6149 36.6799 40.6624 33.9759 41.2418L33.9637 41.2445C33.0695 41.4361 30.4681 41.9934 30.0461 42.9579C29.8024 43.5151 32.324 44.5759 32.7066 44.7147Z" fill="#EB5757" stroke="black" stroke-width="2" stroke-linecap="round" stroke-linejoin="round"/>
  <path d="M58.4077 37.9518C54.7968 38.7943 51.1326 39.3091 47.4713 39.8608L51.1952 45.3966C52.0941 44.7307 57.4626 40.4657 58.4077 39.8608C59.0859 39.4268 58.803 37.8595 58.4077 37.9518Z" fill="#EB5757" stroke="black" stroke-width="2" stroke-linecap="round" stroke-linejoin="round"/>

  <defs>
    <linearGradient id="paint0_linear" x1="46.5796" y1="15.5508" x2="46.5796" y2="78.4182" gradientUnits="userSpaceOnUse">
      <stop stop-color="#2D1A1A"/>
      <stop offset="1" stop-color="#C4C4C4"/>
    </linearGradient>
    <linearGradient id="paint1_linear" x1="50.5" y1="61.5" x2="56.5" y2="76" gradientUnits="userSpaceOnUse">
      <stop stop-opacity="0.5"/>
      <stop offset="1" stop-color="white" stop-opacity="0.5"/>
    </linearGradient>
  </defs>
</svg>
