<svg viewBox="0 0 100 100" fill="none" xmlns="http://www.w3.org/2000/svg">
  <path d="M24.8836 85.8599C24.8618 85.8529 24.8421 85.8441 24.8247 85.8332L24.8836 85.8599C25.2254 85.9691 26.0727 85.6211 26.3073 85.559C27.6805 85.1955 29.0272 84.7546 30.3691 84.2897C33.4147 83.2346 39.0119 81.203 38.8278 77.0597C38.7414 75.1165 36.6205 74.2927 35.1011 73.6173C31.9997 72.2389 28.7173 71.1834 25.5558 69.9414C21.9765 68.5352 17.863 67.484 14 67.484L14.7311 62.5489C15.372 62.5489 15.9092 62.1834 16.5792 62.1834C17.2312 62.1834 17.8422 62.3075 18.468 62.488C20.3422 63.0286 22.1009 63.4197 24.0631 63.4527C31.061 63.5703 42.8607 58.964 43.0179 50H51.4258C52.2955 52.0872 52.4892 57.1572 54.0697 58.8121C55.5789 60.3923 58.7716 61.1604 60.8326 61.635C69.3384 63.5936 77.8046 58.7535 85.1019 55.0549L90.4025 63.8284C85.3402 63.8284 80.3429 65.2224 75.7394 67.2606C72.3237 68.7729 66.4959 71.0164 66.8644 75.6685C67.1073 78.7359 69.4128 81.0424 71.7385 82.8173C73.4315 84.1093 75.1545 85.1818 77.029 86.1988C78.6954 87.1029 80.4422 87.587 82.1774 88.3211L62.6198 89.235C60.6144 87.898 59.2511 85.0142 58.0096 83.0204C57.1822 81.6915 56.1892 79.7013 54.6587 79.05C53.2049 78.4314 51.1129 78.8862 49.6423 79.182L40.8688 82.7767C39.5553 84.0439 39.7373 85.8906 39.9752 87.5392C40.2557 89.4824 40.6352 91.3867 41.2344 93.2562L24.8836 85.8599Z" fill="url(#paint0_linear)"/>
  <path d="M25.1497 84.6654C25.133 84.7394 24.7196 85.7675 24.8247 85.8332M24.8247 85.8332C25.1149 86.0146 26.0577 85.6251 26.3073 85.559C27.6805 85.1955 29.0272 84.7546 30.3691 84.2897C33.4147 83.2345 39.0119 81.203 38.8278 77.0597C38.7414 75.1165 36.6205 74.2927 35.1011 73.6173C31.9997 72.2389 28.7173 71.1834 25.5558 69.9414C21.9765 68.5352 17.863 67.484 14 67.484L14.7311 62.5489C15.372 62.5489 15.9092 62.1834 16.5792 62.1834C17.2312 62.1834 17.8422 62.3075 18.468 62.488C20.3422 63.0286 22.1009 63.4197 24.0631 63.4527C31.061 63.5703 42.8607 58.964 43.0179 50H51.4258C52.2955 52.0872 52.4892 57.1572 54.0697 58.8121C55.5789 60.3923 58.7716 61.1604 60.8326 61.635C69.3384 63.5936 77.8046 58.7535 85.1019 55.0549L90.4025 63.8284C85.3402 63.8284 80.3429 65.2224 75.7394 67.2606C72.3236 68.7729 66.4959 71.0164 66.8644 75.6685C67.1073 78.7359 69.4128 81.0424 71.7385 82.8173C73.4315 84.1093 75.1545 85.1818 77.029 86.1988C78.6954 87.1029 80.4422 87.587 82.1774 88.3211L62.6198 89.235C60.6144 87.898 59.2511 85.0142 58.0096 83.0204C57.1822 81.6915 56.1892 79.7013 54.6587 79.05C53.2049 78.4314 51.1129 78.8862 49.6423 79.182L40.8688 82.7767C39.5553 84.0439 39.7373 85.8906 39.9752 87.5392C40.2557 89.4824 40.6352 91.3867 41.2344 93.2562L24.8247 85.8332Z" stroke="black" stroke-width="3" stroke-linecap="round" stroke-linejoin="round"/>
  <path d="M18.1461 17.1713C22.1665 17.4393 25.6886 17.5723 28.5139 20.8371L30.89 19.9231C30.89 18.7645 30.6775 17.5771 31.479 16.6331C32.2369 15.7405 33.2076 15.687 34.0582 15.0794C34.827 14.5303 32.1695 14.9727 31.2251 14.9982C28.2874 15.0776 25.3675 15.5349 22.5024 16.166C21.0635 16.4829 19.6147 16.6378 18.1766 16.9174C17.7845 16.9937 17.7058 17.1419 18.1461 17.1713Z" fill="#828282" stroke="black" stroke-linecap="round" stroke-linejoin="round"/>
  <path d="M48.3964 15.0287C49.2641 15.6264 48.6429 17.3488 48.437 18.0953L52.2754 19.0092C51.925 16.9066 52.4823 15.351 53.6361 13.5258C53.8619 13.1687 55.1669 12.3706 55.2202 12.1042C55.3132 11.6391 54.2696 12.1092 53.7986 12.1651C52.3257 12.3399 50.7832 12.2765 49.3306 12.5307C47.3716 12.8735 45.2839 13.2657 43.441 14.0335L48.3964 15.0287Z" fill="#828282" stroke="black" stroke-linecap="round" stroke-linejoin="round"/>
  <path d="M28.7625 33.3731C26.8876 31.1573 23.8524 29.9524 21.1669 29.1285L20.6543 26.3205C20.0642 25.5695 19.3847 24.8199 20.0755 23.8733C20.5916 23.1659 21.5967 22.9547 22.3907 22.7563C24.1729 22.3107 26.0039 22.0763 27.803 21.7103C35.1764 20.2107 42.5764 19.2053 50.0211 18.1156C56.0575 17.2321 62.5609 16.8521 68.3602 14.8053L64 20C62.5581 21.8733 58.3365 22.6829 57.581 23.8583C56.7133 25.208 58.0993 27.2863 59.3479 27.8084C65.2576 30.2797 73.1475 25.9591 77.9103 31.4132L80.8551 39.6892C81.1553 41.5691 80.852 42.7036 79.139 43.5783C77.5143 44.408 75.8804 44.6443 74.1734 45.071L60.4852 48.3103C51.5702 49.7405 42.7685 50.008 33.7585 49.9655C28.992 49.943 23.267 50.2436 18.8212 48.1377C17.9534 47.7266 17.4431 47.1855 17.0645 46.3201C16.7052 45.499 17.9415 44.4853 18.4455 43.9947C21.0113 41.4964 24.4992 40.0608 27.1581 37.6481C28.213 36.6908 30.0183 34.8572 28.7625 33.3731Z" fill="#333333" stroke="black" stroke-width="2" stroke-linecap="round" stroke-linejoin="round"/>
  <path d="M29.1841 43.5425C27.6644 42.1857 31.8093 38.7504 38 37.5C44.1907 36.2496 52.5 34.2816 52.5 34.2816C55.6862 33.8015 71.0109 30.7789 73.5 34.2816C75.9891 37.7843 75 40.3898 59.5 43.5425C44 46.6953 29.1841 43.5425 29.1841 43.5425Z" fill="#4F4F4F" stroke="black" stroke-width="2" stroke-linecap="round" stroke-linejoin="round"/>
  <path d="M28.677 29.1268C30.8413 29.9119 33.3013 30.1219 35.5821 30.1219L34.6682 28.4769C35.017 27.4306 37.4454 26.8093 38.3441 26.4765C39.4535 26.0656 42.7563 25.0041 41.5733 25.0041C40.4767 25.0041 39.3797 24.9949 38.2832 25.0041C35.5242 25.0271 32.6504 25.0745 29.9464 25.6539L29.9341 25.6566C29.0399 25.8482 26.4385 26.4056 26.0166 27.3701C25.7728 27.9273 28.2944 28.988 28.677 29.1268Z" fill="#EB5757" stroke="black" stroke-width="2" stroke-linecap="round" stroke-linejoin="round"/>
  <path d="M54.9364 23.0039C51.3255 23.8465 47.6613 24.3613 44 24.913L47.7239 30.4488C48.6229 29.7829 53.9913 25.5178 54.9364 24.913C55.6146 24.4789 55.3317 22.9117 54.9364 23.0039Z" fill="#EB5757" stroke="black" stroke-width="2" stroke-linecap="round" stroke-linejoin="round"/>

  <defs>
    <linearGradient id="paint0_linear" x1="35" y1="16" x2="42" y2="78" gradientUnits="userSpaceOnUse">
      <stop stop-color="#C4C4C4"/>
      <stop offset="1" stop-color="#4F4747"/>
    </linearGradient>
  </defs>
</svg>
