<svg width="100" height="100" viewBox="0 0 100 100" fill="none" xmlns="http://www.w3.org/2000/svg">
  <path d="M23 62L26 69.5L34 77.5L40.5 81L40 85.5L27.5 79.5L18.5 88V92L13.5 90.5L12 85.5H16L24 76L18.5 62.5L23 62Z" fill="#C4C4C4"/>
  <path d="M25.5 78L18.5 85.5M25.5 78L24 76M25.5 78L27.5 79.5M18.5 85.5L13.5 90.5M18.5 85.5H16M18.5 85.5V88M13.5 90.5L12 85.5H16M13.5 90.5L18.5 92V88M16 85.5L24 76M24 76L18.5 62.5L23 62L26 69.5L34 77.5L40.5 81L40 85.5L27.5 79.5M18.5 88L27.5 79.5" stroke="black"/>
  <path d="M70 27L76 24.5L73.5 31L32 75.5L28 71.5L70 27Z" fill="#C4C4C4"/>
  <path d="M76 24.5L70 27L28 71.5M76 24.5L73.5 31L32 75.5M76 24.5L36.5 66.5M28 71.5C31.3807 68 33.5 66.5 36.5 66.5M28 71.5L32 75.5M32 75.5C35 72.2439 36.5 69 36.5 66.5" stroke="black"/>
  <path d="M32 28L35 25L95.5 86.5L92.5 89.5L32 28Z" fill="#635757" stroke="black"/>
  <path d="M73.5 70.1859L70 66.6281L72.789 63.5L74.7616 65.5C76.0393 66.7954 77.2886 68.0616 78.5 69.2891C79.5293 70.3321 80.5312 71.3472 81.5 72.3286C82.5882 73.431 83.6346 74.4908 84.6311 75.5C85.6416 76.5232 86.6007 77.4944 87.5 78.4048L89.7943 80.7272L86.5 83.4008L83.1545 80L80 76.7934L77 73.7438L73.5 70.1859Z" fill="#5B3C3C"/>
  <path d="M70 66.6281L74.7616 65.5M70 66.6281L73.5 70.1859M70 66.6281L72.789 63.5C73.4531 64.1734 74.111 64.8405 74.7616 65.5M74.7616 65.5L73.5 70.1859M74.7616 65.5C76.0393 66.7954 77.2886 68.0616 78.5 69.2891M73.5 70.1859L78.5 69.2891M73.5 70.1859L77 73.7438M78.5 69.2891L77 73.7438M78.5 69.2891C79.5293 70.3321 80.5312 71.3472 81.5 72.3286M77 73.7438L81.5 72.3286M77 73.7438L80 76.7934M81.5 72.3286L80 76.7934M81.5 72.3286C82.5882 73.431 83.6346 74.4908 84.6311 75.5M80 76.7934L84.6311 75.5M80 76.7934L83.1545 80M84.6311 75.5L83.1545 80M84.6311 75.5C85.6416 76.5232 86.6007 77.4944 87.5 78.4048M83.1545 80L87.5 78.4048M83.1545 80L86.5 83.4008M87.5 78.4048L86.5 83.4008M87.5 78.4048C88.3161 79.2311 89.083 80.0073 89.7943 80.7272L86.5 83.4008" stroke="black"/>
  <path d="M25 43C22.7629 41.1358 21 38.5 21 36.5C25 36.1 27.5385 34.5 29 33.5L37 26L40 29L34 35C34 35 31 37.5 31 39.5C31 42.5 34.5 44.5 33 47C31.5 46.1667 28 45.5 25 43Z" fill="#C4C4C4" stroke="black"/>
</svg>
