<svg viewBox="0 0 100 100" fill="none" xmlns="http://www.w3.org/2000/svg">
  <rect x="15" y="34" width="41" height="39" fill="url(#paint0_linear)"/>
  <path d="M89.2787 73.5C89.2787 78.7467 72.7787 79.5 48.2787 83.7637C23.7787 88.0275 6.77871 87.2467 6.77871 82C6.77871 76.7533 5.30404 61.5 28.5 61.5C51.696 61.5 89.2787 68.2533 89.2787 73.5Z" fill="url(#paint1_linear)"/>
  <path d="M62.1099 69.7737C62.8311 70.162 65.9726 69.9482 66.4631 70.5895C67.5927 70.5895 71.9567 71.0621 73.0505 70.9648C75.6423 70.7345 78.1568 70.9974 80.7522 70.5895C80.0468 68.761 39.0711 12.3692 38.5 10.5C38.3399 11.3461 26.5461 29.9113 27 30.5C28.6117 32.1951 35.0465 37.7649 37.0021 39C38.8812 40.1868 44.702 45.6746 45.9632 47.5C46.8416 48.7713 52.4022 62.9298 53.5021 64C54.2223 64.7008 61.2454 69.3082 62.1099 69.7737Z" fill="#635757" stroke="black" stroke-linecap="round" stroke-linejoin="round"/>
  <path d="M81.7505 75.7737C82.4717 76.162 83.1691 77.0414 83.6596 77.6828C84.4408 77.56 94.946 76.8464 94.946 75.7737C94.2275 74.1734 94.4186 64.1087 93.7883 62.4747C93.083 60.6461 91.5172 53.1072 90.946 51.2381C89.1115 47.3651 87.9186 39.0708 85.3053 35.7109C84.2672 34.8458 74.0773 24.0369 73.184 23.0043C72.3304 22.0175 71.4082 21.0371 70.7038 19.9367C69.0604 17.3687 66.1352 16.1861 63.6875 14.5683C61.4045 13.0594 59.2718 11.5839 56.6712 10.6849C55.4189 10.252 54.6371 9.50198 53.6362 8.6942C50.9793 7.52286 37.2316 3.08112 34.3983 3.08112C32.4927 3.08112 30.0996 2.71998 28.2958 3.52168C27.2971 3.96552 26.8042 4.47927 26.093 5.29209C25.6069 5.84753 27.1716 9.97919 27.446 10.6849C29.4885 12.5571 39.1661 20.4495 41.0639 22.4658C42.596 24.4575 48.8548 32.4693 50.2504 34.5323C50.9545 36.2926 53.9926 45.3544 53.6362 47.2381C53.4761 48.0841 57.1799 54.5113 57.6339 55.1C59.2456 56.7951 67.9905 64.003 69.946 65.2381C71.8252 66.4249 74.9089 69.0369 76.1701 70.8623C77.0485 72.1336 78.1541 73.235 79.254 74.3052C79.9742 75.0059 80.886 75.3082 81.7505 75.7737Z" fill="#635757" stroke="black" stroke-linecap="round" stroke-linejoin="round"/>
  <path d="M4.31664 79.8844C-1.18336 73.3413 1.81664 51.9754 1.81664 47.3844C1.81664 37.9515 7.07481 6.38442 10.3166 5.38442C13.5254 4.39463 26.3111 2.09107 27.8034 3.38442C27.41 3.88442 36.8424 16.956 36.8166 17.8844C36.7899 18.8466 35.2721 25.0464 34.9696 25.9539C34.4299 27.7079 29.2769 41.9811 28.5026 43.6072C27.0453 46.6675 26.5701 51.9381 27.5587 55.2129C28.2699 57.5686 28.5953 60.0667 29.0968 62.449C29.3646 63.7206 29.764 65.6699 29.1318 66.8711C28.6704 67.7478 29.0149 68.5722 28.7473 69.4754C28.5669 70.0841 28.0411 70.4652 27.8034 71.0485C27.0834 72.8157 25.4106 73.864 23.9232 74.8937C22.0612 76.1828 20.9137 77.6741 18.7146 78.5293C17.0239 79.1867 13.5585 85.3844 9.31664 82.8844C7.79539 83.2424 6.31664 80.8413 4.31664 79.8844Z" fill="#635757" stroke="black" stroke-linecap="round" stroke-linejoin="round"/>
  <path d="M22.2693 68.9337C23.6592 72.4802 25.5889 75.975 26.0794 79.8009C26.7337 80.8915 25.294 85.6108 23.9674 86.7163C21.3734 88.7338 16.7037 86.385 13.4674 86.7163C10.4324 87.027 4.16821 87.154 2.4674 84.2163C1.5663 82.2574 0.569947 76.4159 1.19584 74.4244C1.52847 73.3661 4.23826 64.6464 4.63875 63.6144C5.19807 61.3149 7.90983 49.062 9.04436 47.0199C9.27614 46.6027 12.9811 52.8865 13.4674 52.8865C13.599 54.3716 14.541 61.4093 14.5 62.8865C14.4592 64.3538 17.4764 63.9957 18 65.3865C18.8694 67.6959 21.3688 66.6357 22.2693 68.9337Z" fill="#635757" stroke="black" stroke-linecap="round" stroke-linejoin="round"/>

  <defs>
    <linearGradient id="paint0_linear" x1="38.5" y1="76.5" x2="24.5" y2="44" gradientUnits="userSpaceOnUse">
      <stop stop-opacity="0"/>
      <stop offset="1" stop-color="#EC6C10"/>
    </linearGradient>
    <linearGradient id="paint1_linear" x1="36.5" y1="57" x2="40.5" y2="85" gradientUnits="userSpaceOnUse">
      <stop stop-color="#635757"/>
      <stop offset="1" stop-color="#635757" stop-opacity="0"/>
    </linearGradient>
  </defs>
</svg>
