<svg viewBox="0 0 100 100" fill="none" xmlns="http://www.w3.org/2000/svg">
  <g class="axe-left">
    <path class="axe__handle" d="M76.5 24L73.5 21L13 82.5L16 85.5L76.5 24Z" fill="#635757" stroke="black"/>
    <path class="axe__handle-fill" d="M35 66.1859L38.5 62.6281L35.711 59.5L33.7384 61.5C32.4607 62.7954 31.2114 64.0616 30 65.2891C28.9707 66.3321 27.9688 67.3472 27 68.3286C25.9118 69.431 24.8654 70.4908 23.8689 71.5C22.8584 72.5232 21.8993 73.4944 21 74.4048L18.7057 76.7272L22 79.4008L25.3455 76L28.5 72.7934L31.5 69.7438L35 66.1859Z" fill="#5B3C3C"/>
    <path class="axe__handle-draft" d="M38.5 62.6281L33.7384 61.5M38.5 62.6281L35 66.1859M38.5 62.6281L35.711 59.5C35.0469 60.1734 34.389 60.8405 33.7384 61.5M33.7384 61.5L35 66.1859M33.7384 61.5C32.4607 62.7954 31.2114 64.0616 30 65.2891M35 66.1859L30 65.2891M35 66.1859L31.5 69.7438M30 65.2891L31.5 69.7438M30 65.2891C28.9707 66.3321 27.9688 67.3472 27 68.3286M31.5 69.7438L27 68.3286M31.5 69.7438L28.5 72.7934M27 68.3286L28.5 72.7934M27 68.3286C25.9118 69.431 24.8654 70.4908 23.8689 71.5M28.5 72.7934L23.8689 71.5M28.5 72.7934L25.3455 76M23.8689 71.5L25.3455 76M23.8689 71.5C22.8584 72.5232 21.8993 73.4944 21 74.4048M25.3455 76L21 74.4048M25.3455 76L22 79.4008M21 74.4048L22 79.4008M21 74.4048C20.1839 75.2311 19.417 76.0073 18.7057 76.7272L22 79.4008" stroke="black"/>
    <path class="axe__blade" d="M83.5 39C85.7371 37.1358 87.5 34.5 87.5 32.5C83.5 32.1 80.9615 30.5 79.5 29.5L71.5 22L68.5 25L74.5 31C74.5 31 77.5 33.5 77.5 35.5C77.5 38.5 74 40.5 75.5 43C77 42.1667 80.5 41.5 83.5 39Z" fill="#C4C4C4" stroke="black"/>
  </g>
  <g class="axe-right">
    <path class="axe__handle" d="M24 24L27 21L87.5 82.5L84.5 85.5L24 24Z" fill="#635757" stroke="black"/>
    <path d="M65.5 66.1859L62 62.6281L64.789 59.5L66.7616 61.5C68.0393 62.7954 69.2886 64.0616 70.5 65.2891C71.5293 66.3321 72.5312 67.3472 73.5 68.3286C74.5882 69.431 75.6346 70.4908 76.6311 71.5C77.6416 72.5232 78.6007 73.4944 79.5 74.4048L81.7943 76.7272L78.5 79.4008L75.1545 76L72 72.7934L69 69.7438L65.5 66.1859Z" fill="#5B3C3C"/>
    <path d="M62 62.6281L66.7616 61.5M62 62.6281L65.5 66.1859M62 62.6281L64.789 59.5C65.4531 60.1734 66.111 60.8405 66.7616 61.5M66.7616 61.5L65.5 66.1859M66.7616 61.5C68.0393 62.7954 69.2886 64.0616 70.5 65.2891M65.5 66.1859L70.5 65.2891M65.5 66.1859L69 69.7438M70.5 65.2891L69 69.7438M70.5 65.2891C71.5293 66.3321 72.5312 67.3472 73.5 68.3286M69 69.7438L73.5 68.3286M69 69.7438L72 72.7934M73.5 68.3286L72 72.7934M73.5 68.3286C74.5882 69.431 75.6346 70.4908 76.6311 71.5M72 72.7934L76.6311 71.5M72 72.7934L75.1545 76M76.6311 71.5L75.1545 76M76.6311 71.5C77.6416 72.5232 78.6007 73.4944 79.5 74.4048M75.1545 76L79.5 74.4048M75.1545 76L78.5 79.4008M79.5 74.4048L78.5 79.4008M79.5 74.4048C80.3161 75.2311 81.083 76.0073 81.7943 76.7272L78.5 79.4008" stroke="black"/>
    <path d="M17 39C14.7629 37.1358 13 34.5 13 32.5C17 32.1 19.5385 30.5 21 29.5L29 22L32 25L26 31C26 31 23 33.5 23 35.5C23 38.5 26.5 40.5 25 43C23.5 42.1667 20 41.5 17 39Z" fill="#C4C4C4" stroke="black"/>
  </g>
</svg>
