<svg viewBox="0 0 108 108" fill="none" xmlns="http://www.w3.org/2000/svg">
  <g filter="url(#filter0_f)">
    <g fill="black">
      <ellipse cx="54" cy="69" rx="25" ry="29"/>
      <ellipse cx="53" cy="32" rx="18" ry="15"/>
      <path d="M33.5 14C38.3 10.4 45.1667 15.5 48 18.5H57.5C60.3333 15.5 67.2 10.4 72 14C69 14.5 63.4 17 65 23H40.5C42.1 17 36.5 14.5 33.5 14Z"/>
      <path d="M35.5 51.5L53 48L72.5 51.5L87.5 53L92 70C89 66 83 59.5 78 60L53 56.5C50.3333 56.5 29.0324 60 25.5 60C19.5 60 19 65 17 70L12.5 58.5L19.5 53L35.5 51.5Z"/>
    </g>
    <path d="M54.5 29L44 26V31.5L54.5 29Z" fill="#C00000"/>
    <path d="M51 29L61.5 26V31.5L51 29Z" fill="#C00000"/>
  </g>
  <defs>
    <filter id="filter0_f" filterUnits="userSpaceOnUse" color-interpolation-filters="sRGB">
      <feFlood flood-opacity="0" result="BackgroundImageFix"/>
      <feBlend mode="normal" in="SourceGraphic" in2="BackgroundImageFix" result="shape"/>
      <feGaussianBlur stdDeviation="2" result="effect1_foregroundBlur"/>
    </filter>
  </defs>
</svg>
