<svg viewBox="0 0 100 100" fill="none" xmlns="http://www.w3.org/2000/svg">
  <g fill="black" filter="url(#filter0_f)">
    <ellipse cx="50" cy="68" rx="25" ry="30"/>
    <ellipse cx="49" cy="30" rx="18" ry="15"/>
    <path d="M29.5 12C34.3 8.4 41.1667 13.5 44 16.5H53.5C56.3333 13.5 63.2 8.4 68 12C65 12.5 59.4 15 61 21H36.5C38.1 15 32.5 12.5 29.5 12Z"/>
    <path d="M31.5 49.5L49 46L68.5 49.5L83.5 51L88 68C85 64 79 57.5 74 58L49 54.5C46.3333 54.5 25.0324 58 21.5 58C15.5 58 15 63 13 68L8.5 56.5L15.5 51L31.5 49.5Z"/>
  </g>
  <defs>
    <filter id="filter0_f" filterUnits="userSpaceOnUse" color-interpolation-filters="sRGB">
      <feFlood flood-opacity="0" result="BackgroundImageFix"/>
      <feBlend mode="normal" in="SourceGraphic" in2="BackgroundImageFix" result="shape"/>
      <feGaussianBlur stdDeviation="2" result="effect1_foregroundBlur"/>
    </filter>
  </defs>
</svg>
