<svg viewBox="0 0 108 108" fill="none" xmlns="http://www.w3.org/2000/svg">
  <g filter="url(#filter0_f)">
    <g fill="black">
      <ellipse cx="54" cy="69" rx="25" ry="30"/>
      <ellipse cx="53" cy="34" rx="18" ry="15"/>
      <path d="M41.5 28H66L83.5 30.5L95.5 13L58.5 23.5L62 14.5L53.5 8L44.5 14.5L49 23.5L16 9.5L22.5 25.5L41.5 28Z"/>
      <path d="M28 49L53 50L69.5 49L75 41.5L90 39.5L97.5 45.5V55.5L90 50L86 57L78 50V62L53 58.5C50.3333 58.5 28.5324 57 25 57L14 60L9.5 55.5L19.5 52L16.5 46L10 45.5L6 38L20 41.5L28 49Z"/>
    </g>
    <path d="M62 30.5C62 32.433 57.6421 35 53.5 35C49.3579 35 45 32.433 45 30.5C45 28.567 49.3579 27 53.5 27C57.6421 27 62 28.567 62 30.5Z" fill="#C00000"/>
  </g>
  <defs>
    <filter id="filter0_f" filterUnits="userSpaceOnUse" color-interpolation-filters="sRGB">
      <feFlood flood-opacity="0" result="BackgroundImageFix"/>
      <feBlend mode="normal" in="SourceGraphic" in2="BackgroundImageFix" result="shape"/>
      <feGaussianBlur stdDeviation="2" result="effect1_foregroundBlur"/>
    </filter>
  </defs>
</svg>
