<svg viewBox="0 0 100 100" fill="none" xmlns="http://www.w3.org/2000/svg">
  <g class="shield">
    <path class="shield-fill" d="M17.5 59.994C15.3127 49.8973 24.3734 37.4251 36.5 40.6292C37.3201 40.8459 38.1543 41.1343 39 41.5C40.1185 41.926 41.1162 42.4284 42 42.995C44.1155 44.3514 45.5779 46.0757 46.4819 48C50.5999 56.7662 43.127 69.6836 33 70.8825C30.9195 71.1287 28.727 70.8805 26.5 70C26.3308 69.9331 26.1641 69.8645 26 69.7943C23.9541 68.9185 22.2995 67.7846 21 66.4725C19.1444 64.5988 18.0129 62.3617 17.5 59.994Z" fill="#5A4545"/>
    <path class="shield-stroke" d="M30 40.5L17.5 59.994M17.5 59.994C15.3127 49.8973 24.3734 37.4251 36.5 40.6292M17.5 59.994C18.0129 62.3617 19.1444 64.5988 21 66.4725M36.5 40.6292C37.3201 40.8459 38.1543 41.1343 39 41.5C40.1185 41.926 41.1162 42.4284 42 42.995M36.5 40.6292L21 66.4725M21 66.4725C22.2995 67.7846 23.9541 68.9185 26 69.7943M42 42.995L26 69.7943M42 42.995C44.1155 44.3514 45.5779 46.0757 46.4819 48M26 69.7943C26.1641 69.8645 26.3308 69.9331 26.5 70C28.727 70.8805 30.9195 71.1287 33 70.8825M46.4819 48C50.5999 56.7662 43.127 69.6836 33 70.8825M46.4819 48L33 70.8825M27 59L34.5 61.5L35 59.994L27.5 57.5L27 59ZM30 50.5L37.5 53L38 51.494L30.5 49L30 50.5Z" stroke="black"/>
  </g>
  <g class="hero">
    <path class="hero-body" d="M53 59.5L45.5 34M39.5 29.3438C41.5 15 53.3102 21 55.5 28.7151C57 34 40.5 37 39.5 29.3438ZM50.5 29.3438C50.5 31.3438 52 31.3438 52 29.3438C52 27.3438 50.5 27.3438 50.5 29.3438Z" stroke="black"/>
    <path class="hero-hand-left" d="M45.5 34L34.5 49.5L30.5 61.5" stroke="black"/>
    <path class="hero-hand-right" d="M45.5 34L60.5 43.5L88.5 37" stroke="black"/>
    <path class="hero-leg-left" d="M10 82C35 75 39.1667 73.3333 39.5 73L53 59.5" stroke="black"/>
    <path class="hero-leg-right" d="M53 59.5L79 57.5L89.5 91" stroke="black"/>
  </g>
  <g class="helmet">
    <path class="helmet-fill" d="M45.5 17L55.5 19L57 24.5L68 25.5C64.5 27 54.5084 28.6446 49 29C33.5 30 30.6667 27.6667 28.5 27L36.5 25.5L37.5 20L45.5 17Z" fill="#C4C4C4"/>
    <path class="helmet-stroke" d="M57 24.5L55.5 19L45.5 17L37.5 20L36.5 25.5M57 24.5L68 25.5C64.5 27 54.5084 28.6446 49 29C33.5 30 30.6667 27.6667 28.5 27L36.5 25.5M57 24.5C49.4 26.5 40.1667 26 36.5 25.5" stroke="black"/>
  </g>
</svg>
