<svg viewBox="0 0 100 100" background="green" fill="black" xmlns="http://www.w3.org/2000/svg">
  <rect width="100%" height="100%" fill="black"/>
  <g class="stars" fill="white">
    <path d="M23 58L25.2451 64.9098H32.5106L26.6327 69.1803L28.8779 76.0902L23 71.8197L17.1221 76.0902L19.3673 69.1803L13.4894 64.9098H20.7549L23 58Z"/>
    <path d="M74.5 40L75.9593 44.4914H80.6819L76.8613 47.2672L78.3206 51.7586L74.5 48.9828L70.6794 51.7586L72.1387 47.2672L68.3181 44.4914H73.0407L74.5 40Z"/>
    <path d="M17.5 7L18.9593 11.4914H23.6819L19.8613 14.2672L21.3206 18.7586L17.5 15.9828L13.6794 18.7586L15.1387 14.2672L11.3181 11.4914H16.0407L17.5 7Z"/>
    <path d="M69.5 18L71.1839 23.1824H76.6329L72.2245 26.3853L73.9084 31.5676L69.5 28.3647L65.0916 31.5676L66.7755 26.3853L62.3671 23.1824H67.8161L69.5 18Z"/>
  </g>
</svg>
