<svg viewBox="0 0 100 100" fill="none" xmlns="http://www.w3.org/2000/svg">
  <g class="sword">
    <path d="M45 22L37.5 25L29.5 33L26 39.5L21.5 39L27.5 26.5L19 17.5L15 17.5L16.5 12.5L21.5 11L21.5 15L31 23L44.5 17.5L45 22Z" fill="#C4C4C4"/>
    <path d="M29 24.5L21.5 17.5M29 24.5L31 23M29 24.5L27.5 26.5M21.5 17.5L16.5 12.5M21.5 17.5L21.5 15M21.5 17.5L19 17.5M16.5 12.5L21.5 11L21.5 15M16.5 12.5L15 17.5L19 17.5M21.5 15L31 23M31 23L44.5 17.5L45 22L37.5 25L29.5 33L26 39.5L21.5 39L27.5 26.5M19 17.5L27.5 26.5" stroke="black"/>
    <path d="M64 56.5L66.5 62.5L60 60L31.5 31L35.5 27C36.3947 27.8642 37.1586 28.6459 37.8003 29.381L64 56.5Z" fill="#C4C4C4"/>
    <path d="M66.5 62.5L64 56.5L35.5 27M66.5 62.5L60 60L31.5 31M66.5 62.5L40.5 35.5M35.5 27C39 30.3807 40.5 32.5 40.5 35.5M35.5 27L31.5 31M31.5 31C34.7561 34 38 35.5 40.5 35.5" stroke="black"/>
  </g>
  <g class="coins">
    <path d="M63 74.5L34 64V41L57 37.5L86 41V64L63 74.5Z" fill="#614F4F"/>
    <path d="M63 74.5L34 64V41M63 74.5V47M63 74.5L86 64V41M63 47L34 41M63 47L86 41M34 41L57 37.5L86 41" stroke="black" stroke-width="3"/>
    <path d="M34 56L63 65.5L86 56M34 49L63 56L86 49" stroke="black"/>
  </g>
  <g class="coins" fill="#F2C94C" stroke="black">
    <path d="M44.5 85C44.5 85.5086 44.2444 86.0437 43.6741 86.5829C43.1028 87.1232 42.2493 87.6328 41.1531 88.0713C38.9636 88.9471 35.9045 89.5 32.5 89.5C29.0955 89.5 26.0364 88.9471 23.8469 88.0713C22.7507 87.6328 21.8972 87.1232 21.3259 86.5829C20.7556 86.0437 20.5 85.5086 20.5 85V82.5H44.5V85Z"/>
    <path d="M44.5 82C44.5 82.5086 44.2444 83.0437 43.6741 83.5829C43.1028 84.1232 42.2493 84.6328 41.1531 85.0713C38.9636 85.9471 35.9045 86.5 32.5 86.5C29.0955 86.5 26.0364 85.9471 23.8469 85.0713C22.7507 84.6328 21.8972 84.1232 21.3259 83.5829C20.7556 83.0437 20.5 82.5086 20.5 82C20.5 81.4914 20.7556 80.9563 21.3259 80.4171C21.8972 79.8768 22.7507 79.3672 23.8469 78.9287C26.0364 78.0529 29.0955 77.5 32.5 77.5C35.9045 77.5 38.9636 78.0529 41.1531 78.9287C42.2493 79.3672 43.1028 79.8768 43.6741 80.4171C44.2444 80.9563 44.5 81.4914 44.5 82Z"/>
    <path d="M49.5 81C49.5 81.5086 49.2444 82.0437 48.6741 82.5829C48.1028 83.1232 47.2493 83.6328 46.1531 84.0713C43.9636 84.9471 40.9045 85.5 37.5 85.5C34.0955 85.5 31.0364 84.9471 28.8469 84.0713C27.7507 83.6328 26.8972 83.1232 26.3259 82.5829C25.7556 82.0437 25.5 81.5086 25.5 81V78.5H49.5V81Z"/>
    <path d="M49.5 78C49.5 78.5086 49.2444 79.0437 48.6741 79.5829C48.1028 80.1232 47.2493 80.6328 46.1531 81.0713C43.9636 81.9471 40.9045 82.5 37.5 82.5C34.0955 82.5 31.0364 81.9471 28.8469 81.0713C27.7507 80.6328 26.8972 80.1232 26.3259 79.5829C25.7556 79.0437 25.5 78.5086 25.5 78C25.5 77.4914 25.7556 76.9563 26.3259 76.4171C26.8972 75.8768 27.7507 75.3672 28.8469 74.9287C31.0364 74.0529 34.0955 73.5 37.5 73.5C40.9045 73.5 43.9636 74.0529 46.1531 74.9287C47.2493 75.3672 48.1028 75.8768 48.6741 76.4171C49.2444 76.9563 49.5 77.4914 49.5 78Z"/>
    <path d="M49.5 78C49.5 78.5086 49.2444 79.0437 48.6741 79.5829C48.1028 80.1232 47.2493 80.6328 46.1531 81.0713C43.9636 81.9471 40.9045 82.5 37.5 82.5C34.0955 82.5 31.0364 81.9471 28.8469 81.0713C27.7507 80.6328 26.8972 80.1232 26.3259 79.5829C25.7556 79.0437 25.5 78.5086 25.5 78V75.5H49.5V78Z"/>
    <path d="M49.5 75C49.5 75.5086 49.2444 76.0437 48.6741 76.5829C48.1028 77.1232 47.2493 77.6328 46.1531 78.0713C43.9636 78.9471 40.9045 79.5 37.5 79.5C34.0955 79.5 31.0364 78.9471 28.8469 78.0713C27.7507 77.6328 26.8972 77.1232 26.3259 76.5829C25.7556 76.0437 25.5 75.5086 25.5 75C25.5 74.4914 25.7556 73.9563 26.3259 73.4171C26.8972 72.8768 27.7507 72.3672 28.8469 71.9287C31.0364 71.0529 34.0955 70.5 37.5 70.5C40.9045 70.5 43.9636 71.0529 46.1531 71.9287C47.2493 72.3672 48.1028 72.8768 48.6741 73.4171C49.2444 73.9563 49.5 74.4914 49.5 75Z"/>
    <path d="M43.5 73C43.5 73.5086 43.2444 74.0437 42.6741 74.5829C42.1028 75.1232 41.2493 75.6328 40.1531 76.0713C37.9636 76.9471 34.9045 77.5 31.5 77.5C28.0955 77.5 25.0364 76.9471 22.8469 76.0713C21.7507 75.6328 20.8972 75.1232 20.3259 74.5829C19.7556 74.0437 19.5 73.5086 19.5 73V70.5H43.5V73Z"/>
    <path d="M43.5 70C43.5 70.5086 43.2444 71.0437 42.6741 71.5829C42.1028 72.1232 41.2493 72.6328 40.1531 73.0713C37.9636 73.9471 34.9045 74.5 31.5 74.5C28.0955 74.5 25.0364 73.9471 22.8469 73.0713C21.7507 72.6328 20.8972 72.1232 20.3259 71.5829C19.7556 71.0437 19.5 70.5086 19.5 70C19.5 69.4914 19.7556 68.9563 20.3259 68.4171C20.8972 67.8768 21.7507 67.3672 22.8469 66.9287C25.0364 66.0529 28.0955 65.5 31.5 65.5C34.9045 65.5 37.9636 66.0529 40.1531 66.9287C41.2493 67.3672 42.1028 67.8768 42.6741 68.4171C43.2444 68.9563 43.5 69.4914 43.5 70Z"/>
    <path d="M46.5 71C46.5 71.5086 46.2444 72.0437 45.6741 72.5829C45.1028 73.1232 44.2493 73.6328 43.1531 74.0713C40.9636 74.9471 37.9045 75.5 34.5 75.5C31.0955 75.5 28.0364 74.9471 25.8469 74.0713C24.7507 73.6328 23.8972 73.1232 23.3259 72.5829C22.7556 72.0437 22.5 71.5086 22.5 71V68.5H46.5V71Z"/>
    <path d="M46.5 68C46.5 68.5086 46.2444 69.0437 45.6741 69.5829C45.1028 70.1232 44.2493 70.6328 43.1531 71.0713C40.9636 71.9471 37.9045 72.5 34.5 72.5C31.0955 72.5 28.0364 71.9471 25.8469 71.0713C24.7507 70.6328 23.8972 70.1232 23.3259 69.5829C22.7556 69.0437 22.5 68.5086 22.5 68C22.5 67.4914 22.7556 66.9563 23.3259 66.4171C23.8972 65.8768 24.7507 65.3672 25.8469 64.9287C28.0364 64.0529 31.0955 63.5 34.5 63.5C37.9045 63.5 40.9636 64.0529 43.1531 64.9287C44.2493 65.3672 45.1028 65.8768 45.6741 66.4171C46.2444 66.9563 46.5 67.4914 46.5 68Z"/>
    <path d="M64.0498 88.4794C63.7308 88.8596 63.2464 89.0583 62.5422 89.0408C61.8259 89.0229 60.9273 88.779 59.8792 88.3156C57.7873 87.3905 55.2358 85.6526 52.6075 83.4471C49.9792 81.2417 47.8246 79.0308 46.5503 77.1313C45.9119 76.1796 45.5157 75.337 45.3737 74.6347C45.2341 73.9442 45.3457 73.4327 45.6647 73.0525L47.2717 71.1374L65.6567 86.5643L64.0498 88.4794Z"/>
    <path d="M65.6567 86.5643C65.5123 86.7365 65.172 86.8813 64.4681 86.8012C63.7875 86.7237 62.8977 86.4469 61.8505 85.9728C59.7627 85.0275 57.1554 83.3471 54.5358 81.149C51.9163 78.951 49.8086 76.675 48.5152 74.7831C47.8665 73.8341 47.4394 73.0059 47.2449 72.3491C47.0437 71.6699 47.1272 71.3096 47.2717 71.1374C47.4161 70.9653 47.7564 70.8205 48.4603 70.9006C49.1409 70.9781 50.0307 71.2549 51.0779 71.729C53.1657 72.6742 55.773 74.3547 58.3926 76.5528C61.0121 78.7508 63.1198 81.0267 64.4132 82.9187C65.0619 83.8677 65.4891 84.6958 65.6836 85.3527C65.8847 86.0319 65.8012 86.3922 65.6567 86.5643Z"/>
  </g>
</svg>

