<svg viewBox="0 0 100 100" fill="none" xmlns="http://www.w3.org/2000/svg">
  <rect width="100" height="100" fill="black"/>
  <g class="top">
    <rect width="39.139" height="36.6125" transform="translate(29 -2)" fill="url(#paint4_radial)"/>
    <path d="M54.7749 15.1999C55.266 13.4653 57.4666 11.5859 60.1067 12.204C64.1133 13.142 63.4306 15.0402 64.533 17.3864C65.6353 19.7326 65.9579 22.1343 63.3287 23.6753C60.6996 25.2163 58.5968 25.0865 56.7151 22.0908C54.8335 19.0952 54.2838 16.9344 54.7749 15.1999Z" fill="#828282" stroke="black" stroke-width="2" stroke-linecap="round" stroke-linejoin="round"/>
    <path d="M38.5256 7.57192C37.7276 6.24553 37.7276 3.68638 39.4709 2.26611C42.1166 0.110687 42.9146 1.65992 44.9096 2.2661C46.9045 2.87228 48.529 4.03472 48.1015 6.68762C47.674 9.34052 46.5055 10.68 43.7126 10.2248C40.9196 9.76967 39.3236 8.89831 38.5256 7.57192Z" fill="#828282" stroke="black" stroke-width="2" stroke-linecap="round" stroke-linejoin="round"/>
    <path d="M48.9875 32.0674C47.5419 31.4694 46.1349 29.3834 46.9189 27.1701C48.1088 23.8113 49.677 24.5909 51.8011 23.8771C53.9252 23.1632 56.0226 23.1271 57.0974 25.5484C58.1723 27.9697 57.8598 29.769 55.1023 31.0891C52.3449 32.4092 50.4331 32.6653 48.9875 32.0674Z" fill="#828282" stroke="black" stroke-width="2" stroke-linecap="round" stroke-linejoin="round"/>
    <path d="M34.2059 26.3277C33.7784 24.84 34.4407 22.3681 36.4922 21.4474C39.6056 20.0502 39.9754 21.7531 41.7455 22.855C43.5157 23.9569 44.7839 25.5001 43.6844 27.952C42.5848 30.4039 41.1095 31.3953 38.5295 30.2327C35.9495 29.0702 34.6334 27.8155 34.2059 26.3277Z" fill="#828282" stroke="black" stroke-width="2" stroke-linecap="round" stroke-linejoin="round"/>
    <path d="M29.5061 15.7068C28.7205 14.1128 28.7205 11.0375 30.4366 9.33076C33.0409 6.7406 33.8264 8.6023 35.7902 9.33075C37.754 10.0592 39.3531 11.4561 38.9322 14.6441C38.5114 17.8321 37.3612 19.4417 34.6119 18.8947C31.8626 18.3478 30.2916 17.3007 29.5061 15.7068Z" fill="#828282" stroke="black" stroke-width="2" stroke-linecap="round" stroke-linejoin="round"/>
    <path d="M40.6442 19.2523C39.6442 17.7524 39.6442 14.8584 41.8288 13.2523C45.1442 10.8149 46.1442 12.5668 48.6442 13.2523C51.1442 13.9378 53.18 15.2523 52.6442 18.2523C52.1085 21.2523 50.6442 22.767 47.1442 22.2523C43.6442 21.7376 41.6442 20.7522 40.6442 19.2523Z" fill="#828282" stroke="black" stroke-width="2" stroke-linecap="round" stroke-linejoin="round"/>
    <path d="M51.4687 12.2621C49.6425 11.8163 47.9846 9.57572 49.1767 6.76925C50.9859 2.51013 52.9565 3.15103 55.7665 1.89309C58.5764 0.635156 61.2978 0.196404 62.4985 2.90233C63.6992 5.60826 63.1511 7.82861 59.4721 9.93423C55.7931 12.0399 53.2948 12.7079 51.4687 12.2621Z" fill="#828282" stroke="black" stroke-width="2" stroke-linecap="round" stroke-linejoin="round"/>
  </g>
  <g class="center">
    <rect width="38.1818" height="40" transform="translate(29 32)" fill="url(#paint5_radial)"/>
    <path d="M35.6442 56.2523C34.6442 54.7524 34.6442 51.8584 36.8288 50.2523C40.1442 47.8149 41.1442 49.5668 43.6442 50.2523C46.1442 50.9378 48.18 52.2523 47.6442 55.2523C47.1085 58.2523 45.6442 59.767 42.1442 59.2523C38.6442 58.7376 36.6442 57.7522 35.6442 56.2523Z" fill="#828282" stroke="black" stroke-width="2" stroke-linecap="round" stroke-linejoin="round"/>
    <path d="M33.4048 39.0061C32.7764 37.5571 32.7764 34.7614 34.1493 33.2098C36.2327 30.8551 36.8611 32.5475 38.4321 33.2098C40.0032 33.872 41.2824 35.1419 40.9458 38.0401C40.6091 40.9383 39.689 42.4016 37.4895 41.9043C35.2901 41.4071 34.0333 40.4552 33.4048 39.0061Z" fill="#828282" stroke="black" stroke-width="2" stroke-linecap="round" stroke-linejoin="round"/>
    <path d="M29.4048 47.6049C28.7764 46.4457 28.7764 44.2091 30.1493 42.9678C32.2327 41.0841 32.8611 42.438 34.4321 42.9678C36.0032 43.4976 37.2824 44.5135 36.9458 46.8321C36.6091 49.1506 35.689 50.3212 33.4895 49.9235C31.2901 49.5257 30.0333 48.7641 29.4048 47.6049Z" fill="#828282" stroke="black" stroke-width="2" stroke-linecap="round" stroke-linejoin="round"/>
    <path d="M43.4554 36.9043C42.7485 35.89 42.7485 33.933 44.2929 32.8468C46.6368 31.1986 47.3438 32.3833 49.1112 32.8468C50.8786 33.3104 52.3178 34.1993 51.939 36.2281C51.5603 38.2568 50.5251 39.2811 48.0507 38.933C45.5763 38.585 44.1624 37.9186 43.4554 36.9043Z" fill="#828282" stroke="black" stroke-width="2" stroke-linecap="round" stroke-linejoin="round"/>
    <path d="M48.3542 56.0896C47.8044 58.5529 47.8044 63.3057 49.0056 65.9434C50.8286 69.9464 51.3785 67.0692 52.7531 65.9434C54.1278 64.8176 55.2471 62.6588 54.9526 57.7319C54.658 52.805 53.8529 50.3174 51.9283 51.1627C50.0038 52.008 48.9041 53.6262 48.3542 56.0896Z" fill="#828282" stroke="black" stroke-width="2" stroke-linecap="round" stroke-linejoin="round"/>
    <path d="M54.2059 38.3277C53.7784 36.84 54.4407 34.3681 56.4922 33.4474C59.6056 32.0502 59.9754 33.7531 61.7455 34.855C63.5157 35.9569 64.7839 37.5001 63.6844 39.952C62.5848 42.4039 61.1095 43.3953 58.5295 42.2327C55.9495 41.0702 54.6334 39.8155 54.2059 38.3277Z" fill="#828282" stroke="black" stroke-width="2" stroke-linecap="round" stroke-linejoin="round"/>
    <path d="M42.3868 47.7011C40.971 46.7273 40.2921 44.2792 42.2396 42.2759C45.195 39.2358 46.67 40.4228 49.4906 40.265C52.3113 40.1073 54.7855 40.6186 54.9194 43.3145C55.0532 46.0105 53.8507 47.7239 50.0062 48.3211C46.1617 48.9184 43.8026 48.6749 42.3868 47.7011Z" fill="#828282" stroke="black" stroke-width="2" stroke-linecap="round" stroke-linejoin="round"/>
    <path d="M57.1564 65.6909C56.0423 64.6163 55.38 62.1443 56.6963 60.3212C58.6939 57.5545 59.8657 58.8444 61.9496 58.9136C64.0335 58.9828 65.9035 59.6852 66.1772 62.3583C66.4509 65.0315 65.6689 66.6277 62.8533 66.911C60.0377 67.1942 58.2705 66.7656 57.1564 65.6909Z" fill="#828282" stroke="black" stroke-width="2" stroke-linecap="round" stroke-linejoin="round"/>
    <path d="M56.5061 53.108C55.7205 51.2243 55.7205 47.5898 57.4366 45.5727C60.0409 42.5116 60.8264 44.7118 62.7902 45.5727C64.754 46.4336 66.3531 48.0845 65.9322 51.8521C65.5114 55.6197 64.3612 57.522 61.6119 56.8756C58.8626 56.2292 57.2916 54.9917 56.5061 53.108Z" fill="#828282" stroke="black" stroke-width="2" stroke-linecap="round" stroke-linejoin="round"/>
    <path d="M33.1375 66.6448C32.7033 65.0859 33.3991 62.4891 35.5218 61.5132C38.7433 60.0323 39.117 61.8173 40.9395 62.9649C42.762 64.1125 44.0641 65.7256 42.917 68.3035C41.7698 70.8813 40.2416 71.9286 37.5832 70.7213C34.9247 69.5139 33.5718 68.2037 33.1375 66.6448Z" fill="#828282" stroke="black" stroke-width="2" stroke-linecap="round" stroke-linejoin="round"/>
  </g>
  <g class="right">
    <rect width="36.2808" height="35.6515" transform="translate(63.9011 28)" fill="url(#paint3_radial)"/>
    <path d="M76.7749 33.1999C77.266 31.4653 79.4666 29.5859 82.1067 30.204C86.1133 31.142 85.4306 33.0402 86.533 35.3864C87.6353 37.7326 87.9579 40.1343 85.3287 41.6753C82.6996 43.2163 80.5968 43.0865 78.7151 40.0908C76.8335 37.0952 76.2838 34.9344 76.7749 33.1999Z" fill="#828282" stroke="black" stroke-width="2" stroke-linecap="round" stroke-linejoin="round"/>
    <path d="M88.5061 48.9043C87.7205 47.89 87.7205 45.933 89.4366 44.8468C92.0409 43.1986 92.8264 44.3833 94.7902 44.8468C96.754 45.3104 98.3531 46.1993 97.9322 48.2281C97.5114 50.2568 96.3612 51.2811 93.6119 50.933C90.8626 50.585 89.2916 49.9186 88.5061 48.9043Z" fill="#828282" stroke="black" stroke-width="2" stroke-linecap="round" stroke-linejoin="round"/>
    <path d="M67.556 48.4907C66.239 47.9855 64.9925 46.1374 65.7664 44.1232C66.941 41.0663 68.3666 41.7324 70.3392 41.0388C72.3118 40.3452 74.2438 40.2633 75.1766 42.4215C76.1093 44.5796 75.7793 46.2096 73.2093 47.4648C70.6393 48.7201 68.873 48.996 67.556 48.4907Z" fill="#828282" stroke="black" stroke-width="2" stroke-linecap="round" stroke-linejoin="round"/>
    <path d="M74.2904 34.1623C74.9528 35.4076 74.6812 37.6201 72.7756 38.6326C69.8836 40.1691 69.2448 38.731 67.301 37.9604C65.3572 37.1897 63.8453 35.984 64.5573 33.7432C65.2692 31.5025 66.5876 30.4889 69.3507 31.2276C72.1139 31.9663 73.6279 32.9169 74.2904 34.1623Z" fill="#828282" stroke="black" stroke-width="2" stroke-linecap="round" stroke-linejoin="round"/>
    <path d="M89.2059 38.3277C88.7784 36.84 89.4407 34.3681 91.4922 33.4474C94.6056 32.0502 94.9754 33.7531 96.7455 34.855C98.5156 35.9569 99.7839 37.5001 98.6844 39.952C97.5848 42.4039 96.1095 43.3953 93.5295 42.2327C90.9494 41.0702 89.6334 39.8155 89.2059 38.3277Z" fill="#828282" stroke="black" stroke-width="2" stroke-linecap="round" stroke-linejoin="round"/>
    <path d="M67.2059 56.3277C66.7784 54.84 67.4407 52.3681 69.4922 51.4474C72.6056 50.0502 72.9754 51.7531 74.7455 52.855C76.5156 53.9569 77.7839 55.5001 76.6844 57.952C75.5848 60.4039 74.1095 61.3953 71.5295 60.2327C68.9494 59.0702 67.6334 57.8155 67.2059 56.3277Z" fill="#828282" stroke="black" stroke-width="2" stroke-linecap="round" stroke-linejoin="round"/>
    <path d="M88.2485 60.3665C87.0649 58.9876 86.541 56.0168 88.243 54.0167C90.8258 50.9814 92.055 52.619 94.4594 52.9206C96.8638 53.2222 98.9586 54.2442 99.013 57.41C99.0674 60.5758 98.0059 62.3662 94.7203 62.4008C91.4347 62.4353 89.4321 61.7455 88.2485 60.3665Z" fill="#828282" stroke="black" stroke-width="2" stroke-linecap="round" stroke-linejoin="round"/>
    <path d="M77.5061 52.108C76.7205 50.2243 76.7205 46.5898 78.4366 44.5727C81.0409 41.5116 81.8264 43.7118 83.7902 44.5727C85.754 45.4336 87.3531 47.0845 86.9322 50.8521C86.5114 54.6197 85.3612 56.522 82.6119 55.8756C79.8626 55.2292 78.2916 53.9917 77.5061 52.108Z" fill="#828282" stroke="black" stroke-width="2" stroke-linecap="round" stroke-linejoin="round"/>
  </g>
  <g class="bottom">
    <rect width="37.8613" height="33.403" transform="translate(29 67)" fill="url(#paint1_radial)"/>
    <rect width="37.8613" height="33.403" transform="translate(29 67)" fill="url(#paint2_radial)"/>
    <path d="M31.7749 89.1999C32.266 87.4653 34.4666 85.5859 37.1067 86.204C41.1133 87.142 40.4306 89.0402 41.533 91.3864C42.6353 93.7326 42.9579 96.1343 40.3287 97.6753C37.6996 99.2163 35.5968 99.0865 33.7151 96.0908C31.8335 93.0952 31.2838 90.9344 31.7749 89.1999Z" fill="#828282" stroke="black" stroke-width="2" stroke-linecap="round" stroke-linejoin="round"/>
    <path d="M44.3542 96.6049C43.8044 95.4457 43.8044 93.2091 45.0056 91.9678C46.8286 90.0841 47.3785 91.438 48.7531 91.9678C50.1278 92.4976 51.2471 93.5135 50.9526 95.8321C50.658 98.1506 49.8529 99.3212 47.9283 98.9235C46.0038 98.5257 44.9041 97.7641 44.3542 96.6049Z" fill="#828282" stroke="black" stroke-width="2" stroke-linecap="round" stroke-linejoin="round"/>
    <path d="M53.3452 94.0963C52.9188 92.4022 53.6808 89.5583 55.898 88.4607C59.2629 86.7951 59.623 88.7368 61.4959 89.9606C63.3687 91.1845 64.6946 92.9243 63.4647 95.7545C62.2347 98.5848 60.6332 99.751 57.894 98.475C55.1548 97.1989 53.7715 95.7904 53.3452 94.0963Z" fill="#828282" stroke="black" stroke-width="2" stroke-linecap="round" stroke-linejoin="round"/>
    <path d="M56.1691 85.332C54.8794 84.4465 53.9368 82.1136 55.1639 80.1117C57.0261 77.0737 58.3979 78.1623 60.624 77.9057C62.8502 77.649 64.9092 78.0498 65.4571 80.6416C66.0051 83.2335 65.3253 84.9285 62.3536 85.6465C59.382 86.3645 57.4587 86.2175 56.1691 85.332Z" fill="#828282" stroke="black" stroke-width="2" stroke-linecap="round" stroke-linejoin="round"/>
    <path d="M43.9765 78.5225C42.5145 78.3097 40.657 76.7511 40.7169 74.5862C40.8077 71.3008 42.4315 71.6493 44.1197 70.5309C45.8078 69.4126 47.668 68.9092 49.326 70.8437C50.9841 72.7782 51.2252 74.4652 49.1473 76.2706C47.0695 78.076 45.4385 78.7353 43.9765 78.5225Z" fill="#828282" stroke="black" stroke-width="2" stroke-linecap="round" stroke-linejoin="round"/>
    <path d="M52.6073 76.0061C51.6647 74.5571 50.6647 69.7614 52.7239 68.2098C55.849 65.8551 56.7917 67.5475 59.1482 68.2098C61.5048 68.872 63.4237 70.1419 62.9187 73.0401C62.4137 75.9383 61.0335 76.4016 57.7343 75.9043C54.4351 75.4071 53.5499 77.4552 52.6073 76.0061Z" fill="#828282" stroke="black" stroke-width="2" stroke-linecap="round" stroke-linejoin="round"/>
    <path d="M41.6442 86.2523C40.6442 84.7524 40.6442 81.8584 42.8288 80.2523C46.1442 77.8149 47.1442 79.5668 49.6442 80.2523C52.1442 80.9378 54.18 82.2523 53.6442 85.2523C53.1085 88.2523 51.6442 89.767 48.1442 89.2523C44.6442 88.7376 42.6442 87.7522 41.6442 86.2523Z" fill="#828282" stroke="black" stroke-width="2" stroke-linecap="round" stroke-linejoin="round"/>
    <path d="M30.5061 80.108C29.7205 78.2243 29.7205 74.5898 31.4366 72.5727C34.0409 69.5116 34.8264 71.7118 36.7902 72.5727C38.754 73.4336 40.3531 75.0845 39.9322 78.8521C39.5114 82.6197 38.3612 84.522 35.6119 83.8756C32.8626 83.2292 31.2916 81.9917 30.5061 80.108Z" fill="#828282" stroke="black" stroke-width="2" stroke-linecap="round" stroke-linejoin="round"/>
  </g>
  <g class="left">
    <rect width="37.4347" height="34.6125" transform="translate(-1 31)" fill="url(#paint0_radial)"/>
    <path d="M23.0707 52.1741C23.5618 50.4395 25.7624 48.5601 28.4024 49.1782C32.409 50.1162 31.7263 52.0144 32.8287 54.3606C33.9311 56.7068 34.2536 59.1085 31.6245 60.6495C28.9953 62.1905 26.8925 62.0608 25.0109 59.0651C23.1292 56.0694 22.5796 53.9086 23.0707 52.1741Z" fill="#828282" stroke="black" stroke-width="2" stroke-linecap="round" stroke-linejoin="round"/>
    <path d="M21.3542 45.9043C20.8044 44.89 20.8044 42.933 22.0056 41.8468C23.8286 40.1986 24.3785 41.3833 25.7531 41.8468C27.1278 42.3104 28.2471 43.1993 27.9526 45.2281C27.658 47.2568 26.8529 48.2811 24.9283 47.933C23.0038 47.585 21.9041 46.9186 21.3542 45.9043Z" fill="#828282" stroke="black" stroke-width="2" stroke-linecap="round" stroke-linejoin="round"/>
    <path d="M23.2059 37.3277C22.7784 35.84 23.4407 33.3681 25.4922 32.4474C28.6056 31.0502 28.9754 32.7531 30.7455 33.855C32.5157 34.9569 33.7839 36.5001 32.6844 38.952C31.5848 41.4039 30.1095 42.3953 27.5295 41.2327C24.9495 40.0702 23.6334 38.8155 23.2059 37.3277Z" fill="#828282" stroke="black" stroke-width="2" stroke-linecap="round" stroke-linejoin="round"/>
    <path d="M12.0794 43.2025C10.4776 42.3755 9.07462 39.8443 10.2067 37.3805C11.9247 33.6414 13.6487 34.6888 16.1675 34.0763C18.6864 33.4639 21.1042 33.6266 22.0901 36.5102C23.076 39.3938 22.5296 41.4285 19.2189 42.6751C15.9082 43.9218 13.6812 44.0296 12.0794 43.2025Z" fill="#828282" stroke="black" stroke-width="2" stroke-linecap="round" stroke-linejoin="round"/>
    <path d="M13.9875 63.0674C12.5419 62.4694 11.1349 60.3834 11.9189 58.1701C13.1088 54.8113 14.677 55.5909 16.8011 54.8771C18.9252 54.1632 21.0226 54.1271 22.0974 56.5484C23.1723 58.9697 22.8598 60.769 20.1023 62.0891C17.3449 63.4092 15.4331 63.6653 13.9875 63.0674Z" fill="#828282" stroke="black" stroke-width="2" stroke-linecap="round" stroke-linejoin="round"/>
    <path d="M12.2059 49.3277C11.7784 47.84 12.4407 45.3681 14.4922 44.4474C17.6056 43.0502 17.9754 44.7531 19.7455 45.855C21.5157 46.9569 22.7839 48.5001 21.6844 50.952C20.5848 53.4039 19.1095 54.3953 16.5295 53.2327C13.9495 52.0702 12.6334 50.8155 12.2059 49.3277Z" fill="#828282" stroke="black" stroke-width="2" stroke-linecap="round" stroke-linejoin="round"/>
    <path d="M0.205872 37.3277C-0.221629 35.84 0.440727 33.3681 2.49222 32.4474C5.60558 31.0502 5.97543 32.7531 7.74554 33.855C9.51566 34.9569 10.7839 36.5001 9.68438 38.952C8.58483 41.4039 7.10947 42.3953 4.52947 41.2327C1.94946 40.0702 0.633372 38.8155 0.205872 37.3277Z" fill="#828282" stroke="black" stroke-width="2" stroke-linecap="round" stroke-linejoin="round"/>
    <path d="M0.644234 55.2523C-0.355757 53.7524 -0.355757 50.8584 1.82885 49.2523C5.14422 46.8149 6.14424 48.5668 8.64424 49.2523C11.1442 49.9378 13.18 51.2523 12.6442 54.2523C12.1085 57.2523 10.6442 58.767 7.14424 58.2523C3.64424 57.7376 1.64422 56.7522 0.644234 55.2523Z" fill="#828282" stroke="black" stroke-width="2" stroke-linecap="round" stroke-linejoin="round"/>
    <path d="M2.40484 46.2037C1.77644 45.3343 1.77644 43.6568 3.14927 42.7259C5.23269 41.3131 5.86112 42.3285 7.43215 42.7259C9.00318 43.1232 10.2824 43.8851 9.9458 45.6241C9.60915 47.363 8.68897 48.2409 6.48953 47.9426C4.29009 47.6442 3.03325 47.0731 2.40484 46.2037Z" fill="#828282" stroke="black" stroke-width="2" stroke-linecap="round" stroke-linejoin="round"/>
  </g>

  <defs>
    <radialGradient id="paint0_radial" cx="0" cy="0" r="1" gradientUnits="userSpaceOnUse" gradientTransform="translate(18.7174 17.3062) rotate(90.981) scale(12.6956 25.4718)">
      <stop stop-color="#375E4B"/>
      <stop offset="1" stop-color="#375E4B" stop-opacity="0"/>
    </radialGradient>
    <radialGradient id="paint1_radial" cx="0" cy="0" r="1" gradientUnits="userSpaceOnUse" gradientTransform="translate(13.5 11.5) rotate(59.9314) scale(10.9772 17.1018)">
      <stop stop-color="#375E4B"/>
      <stop offset="1" stop-color="#375E4B" stop-opacity="0"/>
    </radialGradient>
    <radialGradient id="paint2_radial" cx="0" cy="0" r="1" gradientUnits="userSpaceOnUse" gradientTransform="translate(22 24.1591) rotate(108.368) scale(9.74015 11.0034)">
      <stop stop-color="#375E4B"/>
      <stop offset="1" stop-color="#375E4B" stop-opacity="0"/>
    </radialGradient>
    <radialGradient id="paint3_radial" cx="0" cy="0" r="1" gradientUnits="userSpaceOnUse" gradientTransform="translate(18.1404 17.8257) rotate(88.3243) scale(15.681 20.7926)">
      <stop stop-color="#375E4B"/>
      <stop offset="1" stop-color="#375E4B" stop-opacity="0"/>
    </radialGradient>
    <radialGradient id="paint4_radial" cx="0" cy="0" r="1" gradientUnits="userSpaceOnUse" gradientTransform="translate(18.5 19.5) rotate(88.0909) scale(15.0083 19.0352)">
      <stop offset="0.109667" stop-color="#375E4B"/>
      <stop offset="1" stop-color="#375E4B" stop-opacity="0"/>
    </radialGradient>
    <radialGradient id="paint5_radial" cx="0" cy="0" r="1" gradientUnits="userSpaceOnUse" gradientTransform="translate(19 17) rotate(88.3634) scale(17.5071 18.3867)">
      <stop stop-color="#375E4B"/>
      <stop offset="1" stop-color="#375E4B" stop-opacity="0"/>
    </radialGradient>
  </defs>
</svg>
