<svg viewBox="0 0 100 100" fill="none" xmlns="http://www.w3.org/2000/svg">
  <g class="chest-cover">
    <path d="M45.5 82L21.5 71L20 49.5L63.5 41L84 43.5L86 62.5L45.5 82Z" fill="#775D2B"/>
    <path d="M21.5 71L45.5 82L86 62.5M21.5 71L20 49.5L63.5 41M21.5 71L66 54M86 62.5L66 54M86 62.5L84 43.5L63.5 41M66 54L63.5 41" stroke="black"/>
    <path d="M45.5 82L21.5 71L20 49.5L43 54L84 43.5L86 62.5L45.5 82Z" fill="#614F4F"/>
    <path d="M45.5 82L21.5 71L20 49.5L43 54M45.5 82L86 62.5L84 43.5L43 54M45.5 82L43 54" stroke="black"/>
    <path d="M84.5 48L43.5 60.5L20.5 55.5M85 53L44.5 68L20.5 60.5M85.5 58L45 74.5L21 66" stroke="black"/>
  </g>
  <g class="chest-box">
    <path d="M63.5 41L20 49.5H16.5L9 31.5L10.5 29L56 26L63.5 41Z" fill="#775D2B"/>
    <path d="M63.5 41L20 49.5H16.5M63.5 41L56 26M63.5 41L61 40.5M56 26L10.5 29L9 31.5M56 26L54.5 27.5M54.5 27.5L61 40.5M54.5 27.5L9 31.5M61 40.5L16.5 49.5M9 31.5L16.5 49.5" stroke="black"/>
    <path d="M10.5 29L20 49.5H16.5L9 31.5L10.5 29Z" fill="#614F4F"/>
    <path d="M10.5 29L20 49.5H16.5L9 31.5L10.5 29ZM10.5 29L56 26L63.5 41" stroke="black"/>
  </g>
</svg>
