<svg viewBox="0 0 100 100" fill="none" xmlns="http://www.w3.org/2000/svg">
  <rect width="100" height="100" fill="url(#paint0_radial)"/>

  <path d="M28.4842 53.5198L10.6686 55.8888L5 47.9922V37.7266C14.7176 26.9871 25.245 27.4609 28.4842 32.1989L33.343 44.0439L29.8001 46.4129C26.6959 45.8864 22.8156 44.8335 20.3862 47.9922C23.6254 47.729 27.7305 47.5409 29.3501 48.3305L28.4842 53.5198Z" fill="#A68787" stroke="black"/>
  <path d="M27.0864 39H15.7492L27.0864 42.1586V39Z" fill="white" stroke="black"/>
  <path d="M33.343 67.7338L29.294 50.3612H20.3862L8.2392 48.7818L13.9078 57.4681L33.343 67.7338Z" fill="black" stroke="black"/>
  <path d="M15.7492 46.3115C16.5825 46.9799 19.2492 47.9157 21.2492 46.3115C23.7492 44.3063 27.7492 45 27.7492 45" stroke="black" stroke-width="2"/>
  <path d="M58.5 9.89256C52.5 4.89256 44.5 7.89256 44.5 7.89256L42 14.8926L39 20.3926L49.5 27.3926L60.5 22.3926L58.5 15.8926V9.89256Z" fill="#B69999" stroke="black"/>
  <path d="M42 19.0068C42.8333 19.6752 45 20.611 47 19.0068C49.5 17.0016 51 18.1474 52.5 19.0068C54 19.8662 54.5 19.8662 57 19.0068" stroke="black" stroke-width="2"/>
  <path d="M48 29.3926L44.5 22.3926L50 20.8926L55.5 22.3926L51 29.3926H48Z" fill="black" stroke="black"/>
  <path d="M47 11.8926L51.5 13.3926L55.5 12.8926" stroke="black" stroke-width="2"/>
  <path d="M47.5 15.3926V12.8926L50.5 13.8926L47.5 15.3926Z" fill="white" stroke="black"/>
  <path d="M52.5 15.8926L54 13.8926L51 13.3926L52.5 15.8926Z" fill="white" stroke="black"/>
  <path d="M78 37L88 39L91 45" stroke="black" stroke-width="3"/>
  <path d="M75 54.9467L92.5 50.9467C89.5 36.9467 84.6667 36.9467 77 38.9467L75 43.9467L72 45.4467L71 48.4467L74 49.9467V52.4467L75 54.9467Z" fill="#C98787" stroke="black"/>
  <path d="M83 50L74 52V50L80.5 48.5L82.5 46.5L84.5 49L83 50Z" fill="white" stroke="black"/>
  <path d="M78 43.9467C77.6 42.7467 80.1667 42.1134 81.5 41.9467L80.5 44.4467L78 43.9467Z" fill="white" stroke="black"/>

  <g stroke="black" stroke-width="4">
    <line x1="50" y1="40" x2="50" y2="60"/>
    <line x1="40" y1="50" x2="60" y2="50"/>
  </g>

  <defs>
    <radialGradient id="paint0_radial" cx="0" cy="0" r="1" gradientUnits="userSpaceOnUse" gradientTransform="translate(50 50) rotate(90) scale(50)">
      <stop stop-color="white"/>
      <stop offset="1" stop-color="white" stop-opacity="0"/>
    </radialGradient>
  </defs>
</svg>
