<svg viewBox="0 0 100 100" fill="none" xmlns="http://www.w3.org/2000/svg">
  <path d="M41.5 21.5L43 10L50 9L57 10L58.5 21.5H41.5Z" fill="#635757"/>
  <path d="M41.5 78.5L43 90L50 91L57 90L58.5 78.5H41.5Z" fill="#635757"/>
  <path d="M41.5 21.5L43 10L50 9L57 10L58.5 21.5H41.5Z" stroke="black"/>
  <path d="M41.5 78.5L43 90L50 91L57 90L58.5 78.5H41.5Z" stroke="black"/>
  <path d="M76.1629 35.8579L67 26L70 22.5L73.3345 16.766L78.9914 21.0086L83.234 26.6655L76.1629 35.8579Z" fill="#635757"/>
  <path d="M23.837 64.1421L16.766 73.3345L21.0086 78.9914L26.6655 83.234L35.8579 76.163L23.837 64.1421Z" fill="#635757"/>
  <path d="M76.1629 35.8579L67 26L70 22.5L73.3345 16.766L78.9914 21.0086L83.234 26.6655L76.1629 35.8579Z" stroke="black"/>
  <path d="M23.837 64.1421L16.766 73.3345L21.0086 78.9914L26.6655 83.234L35.8579 76.163L23.837 64.1421Z" stroke="black"/>
  <path d="M23.8371 35.8579L16.766 26.6655L21.0086 21.0086L26.6655 16.766L35.8579 23.837L23.8371 35.8579Z" fill="#635757"/>
  <path d="M64.1422 76.163L73.3345 83.234L78.9914 78.9914L83.234 73.3345L76.163 64.1421L64.1422 76.163Z" fill="#635757"/>
  <path d="M23.8371 35.8579L16.766 26.6655L21.0086 21.0086L26.6655 16.766L35.8579 23.837L23.8371 35.8579Z" stroke="black"/>
  <path d="M64.1422 76.163L73.3345 83.234L78.9914 78.9914L83.234 73.3345L76.163 64.1421L64.1422 76.163Z" stroke="black"/>
  <path d="M21.5 58.5L10 57L9 50L10 43L21.5 41.5V58.5Z" fill="#635757"/>
  <path d="M78.5 58.5L90 57L91 50L90 43L78.5 41.5V58.5Z" fill="#635757"/>
  <path d="M21.5 58.5L10 57L9 50L10 43L21.5 41.5V58.5Z" stroke="black"/>
  <path d="M78.5 58.5L90 57L91 50L90 43L78.5 41.5V58.5Z" stroke="black"/>
  <path d="M50 20.5C52.8388 20.5 55.5832 20.9008 58.18 21.6487L46.0961 38.2052L46.0426 38.2786L46.0182 38.3662L43.5476 47.2606L38.1183 53.677L38.8322 54.3737L47.8322 46.3737L47.9223 46.2936L47.966 46.1812L51.4103 37.3245L67.492 26.243C74.7764 31.6155 79.5 40.2561 79.5 50C79.5 66.2924 66.2924 79.5 50 79.5C33.7076 79.5 20.5 66.2924 20.5 50C20.5 33.7076 33.7076 20.5 50 20.5Z" fill="#635757" stroke="black"/>
</svg>
